999
FreeCAD v0.21 33771 (Git)
  0
SECTION
  2
HEADER
  9
$ACADVER
  1
AC1014
  9
$ACADMAINTVER
 70
     9
  9
$DWGCODEPAGE
  3
ANSI_1252
  9
$TEXTSTYLE
  7
STANDARD
  9
$DIMSTYLE
  2
STANDARD
  9
$DIMTXSTY
  7
STANDARD
  9
$CMLSTYLE
  2
STANDARD
  9
$LUNITS
 70
2
  9
$INSUNITS
 70
4
  9
$PEXTMAX
 10
50
 20
50
 30
50
  9
$PEXTMIN
 10
0
 20
0
 30
0
  9
$HANDSEED
  5
FFFF
  0
ENDSEC
  0
SECTION
  2
CLASSES
  0
CLASS
  1
ACDBDICTIONARYWDFLT
  2
AcDbDictionaryWithDefault
  3
ObjectDBX Classes
 90
        0
280
     0
281
     0
  0
CLASS
  1
XRECORD
  2
AcDbXrecord
  3
ObjectDBX Classes
 90
        0
280
     0
281
     0
  0
CLASS
  1
LWPOLYLINE
  2
AcDbPolyline
  3
ObjectDBX Classes
 90
        0
280
     0
281
     1
  0
ENDSEC
  0
SECTION
  2
TABLES
  0
TABLE
  2
VPORT
  5
20
330
0
100
AcDbSymbolTable
 70
     1
  0
VPORT
  5
21
330
20
100
AcDbSymbolTableRecord
100
AcDbViewportTableRecord
  2
*ACTIVE
 70
     0
  0
ENDTAB
  0
TABLE
  2
LTYPE
  5
22
330
0
100
AcDbSymbolTable
 70
     1
  0
LTYPE
  5
23
330
21
100
AcDbSymbolTableRecord
100
AcDbLinetypeTableRecord
  2
BYBLOCK
 70
     0
  3

 72
    65
 73
     0
 40
0.0
  0
LTYPE
  5
24
330
21
100
AcDbSymbolTableRecord
100
AcDbLinetypeTableRecord
  2
BYLAYER
 70
     0
  3

 72
    65
 73
     0
 40
0.0
  0
LTYPE
  5
25
330
21
100
AcDbSymbolTableRecord
100
AcDbLinetypeTableRecord
  2
CONTINUOUS
 70
     0
  3
Solid line
 72
    65
 73
     0
 40
0.0
  0
ENDTAB
  0
TABLE
  2
LAYER
  5
AF8
330
0
100
AcDbSymbolTable
 70
242
  0
LAYER
  5
AF9
330
AF8
100
AcDbSymbolTableRecord
100
AcDbLayerTableRecord
  2
0
 70
   0
 62
   7
  6
CONTINUOUS
  0
LAYER
  5
AFA
330
AF8
100
AcDbSymbolTableRecord
100
AcDbLayerTableRecord
  2
none
 70
    0
 62
    7
  6
CONTINUOUS
  0
LAYER
  5
AFB
330
AF8
100
AcDbSymbolTableRecord
100
AcDbLayerTableRecord
  2
Shape297
 70
    0
 62
    7
  6
CONTINUOUS
  0
LAYER
  5
AFC
330
AF8
100
AcDbSymbolTableRecord
100
AcDbLayerTableRecord
  2
Shape298
 70
    0
 62
    7
  6
CONTINUOUS
  0
LAYER
  5
AFD
330
AF8
100
AcDbSymbolTableRecord
100
AcDbLayerTableRecord
  2
Shape307
 70
    0
 62
    7
  6
CONTINUOUS
  0
LAYER
  5
AFE
330
AF8
100
AcDbSymbolTableRecord
100
AcDbLayerTableRecord
  2
Shape323
 70
    0
 62
    7
  6
CONTINUOUS
  0
LAYER
  5
AFF
330
AF8
100
AcDbSymbolTableRecord
100
AcDbLayerTableRecord
  2
Shape309
 70
    0
 62
    7
  6
CONTINUOUS
  0
LAYER
  5
B00
330
AF8
100
AcDbSymbolTableRecord
100
AcDbLayerTableRecord
  2
Shape310
 70
    0
 62
    7
  6
CONTINUOUS
  0
LAYER
  5
B01
330
AF8
100
AcDbSymbolTableRecord
100
AcDbLayerTableRecord
  2
Shape322
 70
    0
 62
    7
  6
CONTINUOUS
  0
LAYER
  5
B02
330
AF8
100
AcDbSymbolTableRecord
100
AcDbLayerTableRecord
  2
Shape325
 70
    0
 62
    7
  6
CONTINUOUS
  0
LAYER
  5
B03
330
AF8
100
AcDbSymbolTableRecord
100
AcDbLayerTableRecord
  2
Shape324
 70
    0
 62
    7
  6
CONTINUOUS
  0
LAYER
  5
B04
330
AF8
100
AcDbSymbolTableRecord
100
AcDbLayerTableRecord
  2
Shape331
 70
    0
 62
    7
  6
CONTINUOUS
  0
LAYER
  5
B05
330
AF8
100
AcDbSymbolTableRecord
100
AcDbLayerTableRecord
  2
Shape333
 70
    0
 62
    7
  6
CONTINUOUS
  0
LAYER
  5
B06
330
AF8
100
AcDbSymbolTableRecord
100
AcDbLayerTableRecord
  2
Shape332
 70
    0
 62
    7
  6
CONTINUOUS
  0
LAYER
  5
B07
330
AF8
100
AcDbSymbolTableRecord
100
AcDbLayerTableRecord
  2
Shape343
 70
    0
 62
    7
  6
CONTINUOUS
  0
LAYER
  5
B08
330
AF8
100
AcDbSymbolTableRecord
100
AcDbLayerTableRecord
  2
Shape334
 70
    0
 62
    7
  6
CONTINUOUS
  0
LAYER
  5
B09
330
AF8
100
AcDbSymbolTableRecord
100
AcDbLayerTableRecord
  2
Shape342
 70
    0
 62
    7
  6
CONTINUOUS
  0
LAYER
  5
B0A
330
AF8
100
AcDbSymbolTableRecord
100
AcDbLayerTableRecord
  2
Shape358
 70
    0
 62
    7
  6
CONTINUOUS
  0
LAYER
  5
B0B
330
AF8
100
AcDbSymbolTableRecord
100
AcDbLayerTableRecord
  2
Shape356
 70
    0
 62
    7
  6
CONTINUOUS
  0
LAYER
  5
B0C
330
AF8
100
AcDbSymbolTableRecord
100
AcDbLayerTableRecord
  2
Shape344
 70
    0
 62
    7
  6
CONTINUOUS
  0
LAYER
  5
B0D
330
AF8
100
AcDbSymbolTableRecord
100
AcDbLayerTableRecord
  2
Shape357
 70
    0
 62
    7
  6
CONTINUOUS
  0
LAYER
  5
B0E
330
AF8
100
AcDbSymbolTableRecord
100
AcDbLayerTableRecord
  2
Shape299
 70
    0
 62
    7
  6
CONTINUOUS
  0
LAYER
  5
B0F
330
AF8
100
AcDbSymbolTableRecord
100
AcDbLayerTableRecord
  2
Shape296
 70
    0
 62
    7
  6
CONTINUOUS
  0
LAYER
  5
B10
330
AF8
100
AcDbSymbolTableRecord
100
AcDbLayerTableRecord
  2
Shape308
 70
    0
 62
    7
  6
CONTINUOUS
  0
LAYER
  5
B11
330
AF8
100
AcDbSymbolTableRecord
100
AcDbLayerTableRecord
  2
Shape314
 70
    0
 62
    7
  6
CONTINUOUS
  0
LAYER
  5
B12
330
AF8
100
AcDbSymbolTableRecord
100
AcDbLayerTableRecord
  2
Shape313
 70
    0
 62
    7
  6
CONTINUOUS
  0
LAYER
  5
B13
330
AF8
100
AcDbSymbolTableRecord
100
AcDbLayerTableRecord
  2
Shape321
 70
    0
 62
    7
  6
CONTINUOUS
  0
LAYER
  5
B14
330
AF8
100
AcDbSymbolTableRecord
100
AcDbLayerTableRecord
  2
Shape285
 70
    0
 62
    7
  6
CONTINUOUS
  0
LAYER
  5
B15
330
AF8
100
AcDbSymbolTableRecord
100
AcDbLayerTableRecord
  2
Shape292
 70
    0
 62
    7
  6
CONTINUOUS
  0
LAYER
  5
B16
330
AF8
100
AcDbSymbolTableRecord
100
AcDbLayerTableRecord
  2
Shape286
 70
    0
 62
    7
  6
CONTINUOUS
  0
LAYER
  5
B17
330
AF8
100
AcDbSymbolTableRecord
100
AcDbLayerTableRecord
  2
Shape287
 70
    0
 62
    7
  6
CONTINUOUS
  0
LAYER
  5
B18
330
AF8
100
AcDbSymbolTableRecord
100
AcDbLayerTableRecord
  2
Shape294
 70
    0
 62
    7
  6
CONTINUOUS
  0
LAYER
  5
B19
330
AF8
100
AcDbSymbolTableRecord
100
AcDbLayerTableRecord
  2
Shape293
 70
    0
 62
    7
  6
CONTINUOUS
  0
LAYER
  5
B1A
330
AF8
100
AcDbSymbolTableRecord
100
AcDbLayerTableRecord
  2
Shape301
 70
    0
 62
    7
  6
CONTINUOUS
  0
LAYER
  5
B1B
330
AF8
100
AcDbSymbolTableRecord
100
AcDbLayerTableRecord
  2
Shape295
 70
    0
 62
    7
  6
CONTINUOUS
  0
LAYER
  5
B1C
330
AF8
100
AcDbSymbolTableRecord
100
AcDbLayerTableRecord
  2
Shape300
 70
    0
 62
    7
  6
CONTINUOUS
  0
LAYER
  5
B1D
330
AF8
100
AcDbSymbolTableRecord
100
AcDbLayerTableRecord
  2
Shape302
 70
    0
 62
    7
  6
CONTINUOUS
  0
LAYER
  5
B1E
330
AF8
100
AcDbSymbolTableRecord
100
AcDbLayerTableRecord
  2
Shape311
 70
    0
 62
    7
  6
CONTINUOUS
  0
LAYER
  5
B1F
330
AF8
100
AcDbSymbolTableRecord
100
AcDbLayerTableRecord
  2
Shape336
 70
    0
 62
    7
  6
CONTINUOUS
  0
LAYER
  5
B20
330
AF8
100
AcDbSymbolTableRecord
100
AcDbLayerTableRecord
  2
Shape327
 70
    0
 62
    7
  6
CONTINUOUS
  0
LAYER
  5
B21
330
AF8
100
AcDbSymbolTableRecord
100
AcDbLayerTableRecord
  2
Shape312
 70
    0
 62
    7
  6
CONTINUOUS
  0
LAYER
  5
B22
330
AF8
100
AcDbSymbolTableRecord
100
AcDbLayerTableRecord
  2
Shape318
 70
    0
 62
    7
  6
CONTINUOUS
  0
LAYER
  5
B23
330
AF8
100
AcDbSymbolTableRecord
100
AcDbLayerTableRecord
  2
Shape319
 70
    0
 62
    7
  6
CONTINUOUS
  0
LAYER
  5
B24
330
AF8
100
AcDbSymbolTableRecord
100
AcDbLayerTableRecord
  2
Shape320
 70
    0
 62
    7
  6
CONTINUOUS
  0
LAYER
  5
B25
330
AF8
100
AcDbSymbolTableRecord
100
AcDbLayerTableRecord
  2
Shape326
 70
    0
 62
    7
  6
CONTINUOUS
  0
LAYER
  5
B26
330
AF8
100
AcDbSymbolTableRecord
100
AcDbLayerTableRecord
  2
Shape335
 70
    0
 62
    7
  6
CONTINUOUS
  0
LAYER
  5
B27
330
AF8
100
AcDbSymbolTableRecord
100
AcDbLayerTableRecord
  2
Shape349
 70
    0
 62
    7
  6
CONTINUOUS
  0
LAYER
  5
B28
330
AF8
100
AcDbSymbolTableRecord
100
AcDbLayerTableRecord
  2
Shape382
 70
    0
 62
    7
  6
CONTINUOUS
  0
LAYER
  5
B29
330
AF8
100
AcDbSymbolTableRecord
100
AcDbLayerTableRecord
  2
Shape355
 70
    0
 62
    7
  6
CONTINUOUS
  0
LAYER
  5
B2A
330
AF8
100
AcDbSymbolTableRecord
100
AcDbLayerTableRecord
  2
Shape328
 70
    0
 62
    7
  6
CONTINUOUS
  0
LAYER
  5
B2B
330
AF8
100
AcDbSymbolTableRecord
100
AcDbLayerTableRecord
  2
Shape346
 70
    0
 62
    7
  6
CONTINUOUS
  0
LAYER
  5
B2C
330
AF8
100
AcDbSymbolTableRecord
100
AcDbLayerTableRecord
  2
Shape345
 70
    0
 62
    7
  6
CONTINUOUS
  0
LAYER
  5
B2D
330
AF8
100
AcDbSymbolTableRecord
100
AcDbLayerTableRecord
  2
Shape348
 70
    0
 62
    7
  6
CONTINUOUS
  0
LAYER
  5
B2E
330
AF8
100
AcDbSymbolTableRecord
100
AcDbLayerTableRecord
  2
Shape347
 70
    0
 62
    7
  6
CONTINUOUS
  0
LAYER
  5
B2F
330
AF8
100
AcDbSymbolTableRecord
100
AcDbLayerTableRecord
  2
Shape352
 70
    0
 62
    7
  6
CONTINUOUS
  0
LAYER
  5
B30
330
AF8
100
AcDbSymbolTableRecord
100
AcDbLayerTableRecord
  2
Shape350
 70
    0
 62
    7
  6
CONTINUOUS
  0
LAYER
  5
B31
330
AF8
100
AcDbSymbolTableRecord
100
AcDbLayerTableRecord
  2
Shape351
 70
    0
 62
    7
  6
CONTINUOUS
  0
LAYER
  5
B32
330
AF8
100
AcDbSymbolTableRecord
100
AcDbLayerTableRecord
  2
Shape353
 70
    0
 62
    7
  6
CONTINUOUS
  0
LAYER
  5
B33
330
AF8
100
AcDbSymbolTableRecord
100
AcDbLayerTableRecord
  2
Shape359
 70
    0
 62
    7
  6
CONTINUOUS
  0
LAYER
  5
B34
330
AF8
100
AcDbSymbolTableRecord
100
AcDbLayerTableRecord
  2
Shape360
 70
    0
 62
    7
  6
CONTINUOUS
  0
LAYER
  5
B35
330
AF8
100
AcDbSymbolTableRecord
100
AcDbLayerTableRecord
  2
Shape354
 70
    0
 62
    7
  6
CONTINUOUS
  0
LAYER
  5
B36
330
AF8
100
AcDbSymbolTableRecord
100
AcDbLayerTableRecord
  2
Shape361
 70
    0
 62
    7
  6
CONTINUOUS
  0
LAYER
  5
B37
330
AF8
100
AcDbSymbolTableRecord
100
AcDbLayerTableRecord
  2
Shape362
 70
    0
 62
    7
  6
CONTINUOUS
  0
LAYER
  5
B38
330
AF8
100
AcDbSymbolTableRecord
100
AcDbLayerTableRecord
  2
Shape364
 70
    0
 62
    7
  6
CONTINUOUS
  0
LAYER
  5
B39
330
AF8
100
AcDbSymbolTableRecord
100
AcDbLayerTableRecord
  2
Shape365
 70
    0
 62
    7
  6
CONTINUOUS
  0
LAYER
  5
B3A
330
AF8
100
AcDbSymbolTableRecord
100
AcDbLayerTableRecord
  2
Shape373
 70
    0
 62
    7
  6
CONTINUOUS
  0
LAYER
  5
B3B
330
AF8
100
AcDbSymbolTableRecord
100
AcDbLayerTableRecord
  2
Shape391
 70
    0
 62
    7
  6
CONTINUOUS
  0
LAYER
  5
B3C
330
AF8
100
AcDbSymbolTableRecord
100
AcDbLayerTableRecord
  2
Shape363
 70
    0
 62
    7
  6
CONTINUOUS
  0
LAYER
  5
B3D
330
AF8
100
AcDbSymbolTableRecord
100
AcDbLayerTableRecord
  2
Shape374
 70
    0
 62
    7
  6
CONTINUOUS
  0
LAYER
  5
B3E
330
AF8
100
AcDbSymbolTableRecord
100
AcDbLayerTableRecord
  2
Shape366
 70
    0
 62
    7
  6
CONTINUOUS
  0
LAYER
  5
B3F
330
AF8
100
AcDbSymbolTableRecord
100
AcDbLayerTableRecord
  2
Shape376
 70
    0
 62
    7
  6
CONTINUOUS
  0
LAYER
  5
B40
330
AF8
100
AcDbSymbolTableRecord
100
AcDbLayerTableRecord
  2
Shape375
 70
    0
 62
    7
  6
CONTINUOUS
  0
LAYER
  5
B41
330
AF8
100
AcDbSymbolTableRecord
100
AcDbLayerTableRecord
  2
Shape381
 70
    0
 62
    7
  6
CONTINUOUS
  0
LAYER
  5
B42
330
AF8
100
AcDbSymbolTableRecord
100
AcDbLayerTableRecord
  2
Shape388
 70
    0
 62
    7
  6
CONTINUOUS
  0
LAYER
  5
B43
330
AF8
100
AcDbSymbolTableRecord
100
AcDbLayerTableRecord
  2
Shape396
 70
    0
 62
    7
  6
CONTINUOUS
  0
LAYER
  5
B44
330
AF8
100
AcDbSymbolTableRecord
100
AcDbLayerTableRecord
  2
Shape397
 70
    0
 62
    7
  6
CONTINUOUS
  0
LAYER
  5
B45
330
AF8
100
AcDbSymbolTableRecord
100
AcDbLayerTableRecord
  2
Shape398
 70
    0
 62
    7
  6
CONTINUOUS
  0
LAYER
  5
B46
330
AF8
100
AcDbSymbolTableRecord
100
AcDbLayerTableRecord
  2
Shape383
 70
    0
 62
    7
  6
CONTINUOUS
  0
LAYER
  5
B47
330
AF8
100
AcDbSymbolTableRecord
100
AcDbLayerTableRecord
  2
Shape390
 70
    0
 62
    7
  6
CONTINUOUS
  0
LAYER
  5
B48
330
AF8
100
AcDbSymbolTableRecord
100
AcDbLayerTableRecord
  2
Shape389
 70
    0
 62
    7
  6
CONTINUOUS
  0
LAYER
  5
B49
330
AF8
100
AcDbSymbolTableRecord
100
AcDbLayerTableRecord
  2
Shape395
 70
    0
 62
    7
  6
CONTINUOUS
  0
LAYER
  5
B4A
330
AF8
100
AcDbSymbolTableRecord
100
AcDbLayerTableRecord
  2
Shape016
 70
    0
 62
    7
  6
CONTINUOUS
  0
LAYER
  5
B4B
330
AF8
100
AcDbSymbolTableRecord
100
AcDbLayerTableRecord
  2
Shape017
 70
    0
 62
    7
  6
CONTINUOUS
  0
LAYER
  5
B4C
330
AF8
100
AcDbSymbolTableRecord
100
AcDbLayerTableRecord
  2
Shape018
 70
    0
 62
    7
  6
CONTINUOUS
  0
LAYER
  5
B4D
330
AF8
100
AcDbSymbolTableRecord
100
AcDbLayerTableRecord
  2
Shape019
 70
    0
 62
    7
  6
CONTINUOUS
  0
LAYER
  5
B4E
330
AF8
100
AcDbSymbolTableRecord
100
AcDbLayerTableRecord
  2
Shape013
 70
    0
 62
    7
  6
CONTINUOUS
  0
LAYER
  5
B4F
330
AF8
100
AcDbSymbolTableRecord
100
AcDbLayerTableRecord
  2
Shape014
 70
    0
 62
    7
  6
CONTINUOUS
  0
LAYER
  5
B50
330
AF8
100
AcDbSymbolTableRecord
100
AcDbLayerTableRecord
  2
Shape015
 70
    0
 62
    7
  6
CONTINUOUS
  0
LAYER
  5
B51
330
AF8
100
AcDbSymbolTableRecord
100
AcDbLayerTableRecord
  2
Shape012
 70
    0
 62
    7
  6
CONTINUOUS
  0
LAYER
  5
B52
330
AF8
100
AcDbSymbolTableRecord
100
AcDbLayerTableRecord
  2
Shape329
 70
    0
 62
    7
  6
CONTINUOUS
  0
LAYER
  5
B53
330
AF8
100
AcDbSymbolTableRecord
100
AcDbLayerTableRecord
  2
Shape338
 70
    0
 62
    7
  6
CONTINUOUS
  0
LAYER
  5
B54
330
AF8
100
AcDbSymbolTableRecord
100
AcDbLayerTableRecord
  2
Shape330
 70
    0
 62
    7
  6
CONTINUOUS
  0
LAYER
  5
B55
330
AF8
100
AcDbSymbolTableRecord
100
AcDbLayerTableRecord
  2
Shape337
 70
    0
 62
    7
  6
CONTINUOUS
  0
LAYER
  5
B56
330
AF8
100
AcDbSymbolTableRecord
100
AcDbLayerTableRecord
  2
Shape341
 70
    0
 62
    7
  6
CONTINUOUS
  0
LAYER
  5
B57
330
AF8
100
AcDbSymbolTableRecord
100
AcDbLayerTableRecord
  2
Shape339
 70
    0
 62
    7
  6
CONTINUOUS
  0
LAYER
  5
B58
330
AF8
100
AcDbSymbolTableRecord
100
AcDbLayerTableRecord
  2
Shape340
 70
    0
 62
    7
  6
CONTINUOUS
  0
LAYER
  5
B59
330
AF8
100
AcDbSymbolTableRecord
100
AcDbLayerTableRecord
  2
Shape378
 70
    0
 62
    7
  6
CONTINUOUS
  0
LAYER
  5
B5A
330
AF8
100
AcDbSymbolTableRecord
100
AcDbLayerTableRecord
  2
Shape377
 70
    0
 62
    7
  6
CONTINUOUS
  0
LAYER
  5
B5B
330
AF8
100
AcDbSymbolTableRecord
100
AcDbLayerTableRecord
  2
Shape380
 70
    0
 62
    7
  6
CONTINUOUS
  0
LAYER
  5
B5C
330
AF8
100
AcDbSymbolTableRecord
100
AcDbLayerTableRecord
  2
Shape379
 70
    0
 62
    7
  6
CONTINUOUS
  0
LAYER
  5
B5D
330
AF8
100
AcDbSymbolTableRecord
100
AcDbLayerTableRecord
  2
Shape384
 70
    0
 62
    7
  6
CONTINUOUS
  0
LAYER
  5
B5E
330
AF8
100
AcDbSymbolTableRecord
100
AcDbLayerTableRecord
  2
Shape385
 70
    0
 62
    7
  6
CONTINUOUS
  0
LAYER
  5
B5F
330
AF8
100
AcDbSymbolTableRecord
100
AcDbLayerTableRecord
  2
Shape387
 70
    0
 62
    7
  6
CONTINUOUS
  0
LAYER
  5
B60
330
AF8
100
AcDbSymbolTableRecord
100
AcDbLayerTableRecord
  2
Shape386
 70
    0
 62
    7
  6
CONTINUOUS
  0
LAYER
  5
B61
330
AF8
100
AcDbSymbolTableRecord
100
AcDbLayerTableRecord
  2
Shape400
 70
    0
 62
    7
  6
CONTINUOUS
  0
LAYER
  5
B62
330
AF8
100
AcDbSymbolTableRecord
100
AcDbLayerTableRecord
  2
Shape020
 70
    0
 62
    7
  6
CONTINUOUS
  0
LAYER
  5
B63
330
AF8
100
AcDbSymbolTableRecord
100
AcDbLayerTableRecord
  2
Shape021
 70
    0
 62
    7
  6
CONTINUOUS
  0
LAYER
  5
B64
330
AF8
100
AcDbSymbolTableRecord
100
AcDbLayerTableRecord
  2
Shape022
 70
    0
 62
    7
  6
CONTINUOUS
  0
LAYER
  5
B65
330
AF8
100
AcDbSymbolTableRecord
100
AcDbLayerTableRecord
  2
Shape023
 70
    0
 62
    7
  6
CONTINUOUS
  0
LAYER
  5
B66
330
AF8
100
AcDbSymbolTableRecord
100
AcDbLayerTableRecord
  2
Shape024
 70
    0
 62
    7
  6
CONTINUOUS
  0
LAYER
  5
B67
330
AF8
100
AcDbSymbolTableRecord
100
AcDbLayerTableRecord
  2
Shape025
 70
    0
 62
    7
  6
CONTINUOUS
  0
LAYER
  5
B68
330
AF8
100
AcDbSymbolTableRecord
100
AcDbLayerTableRecord
  2
Shape026
 70
    0
 62
    7
  6
CONTINUOUS
  0
LAYER
  5
B69
330
AF8
100
AcDbSymbolTableRecord
100
AcDbLayerTableRecord
  2
Shape027
 70
    0
 62
    7
  6
CONTINUOUS
  0
LAYER
  5
B6A
330
AF8
100
AcDbSymbolTableRecord
100
AcDbLayerTableRecord
  2
Shape028
 70
    0
 62
    7
  6
CONTINUOUS
  0
LAYER
  5
B6B
330
AF8
100
AcDbSymbolTableRecord
100
AcDbLayerTableRecord
  2
Shape029
 70
    0
 62
    7
  6
CONTINUOUS
  0
LAYER
  5
B6C
330
AF8
100
AcDbSymbolTableRecord
100
AcDbLayerTableRecord
  2
Shape030
 70
    0
 62
    7
  6
CONTINUOUS
  0
LAYER
  5
B6D
330
AF8
100
AcDbSymbolTableRecord
100
AcDbLayerTableRecord
  2
Shape031
 70
    0
 62
    7
  6
CONTINUOUS
  0
LAYER
  5
B6E
330
AF8
100
AcDbSymbolTableRecord
100
AcDbLayerTableRecord
  2
Shape032
 70
    0
 62
    7
  6
CONTINUOUS
  0
LAYER
  5
B6F
330
AF8
100
AcDbSymbolTableRecord
100
AcDbLayerTableRecord
  2
Shape033
 70
    0
 62
    7
  6
CONTINUOUS
  0
LAYER
  5
B70
330
AF8
100
AcDbSymbolTableRecord
100
AcDbLayerTableRecord
  2
Shape034
 70
    0
 62
    7
  6
CONTINUOUS
  0
LAYER
  5
B71
330
AF8
100
AcDbSymbolTableRecord
100
AcDbLayerTableRecord
  2
Shape035
 70
    0
 62
    7
  6
CONTINUOUS
  0
LAYER
  5
B72
330
AF8
100
AcDbSymbolTableRecord
100
AcDbLayerTableRecord
  2
Shape036
 70
    0
 62
    7
  6
CONTINUOUS
  0
LAYER
  5
B73
330
AF8
100
AcDbSymbolTableRecord
100
AcDbLayerTableRecord
  2
Shape037
 70
    0
 62
    7
  6
CONTINUOUS
  0
LAYER
  5
B74
330
AF8
100
AcDbSymbolTableRecord
100
AcDbLayerTableRecord
  2
Shape038
 70
    0
 62
    7
  6
CONTINUOUS
  0
LAYER
  5
B75
330
AF8
100
AcDbSymbolTableRecord
100
AcDbLayerTableRecord
  2
Shape039
 70
    0
 62
    7
  6
CONTINUOUS
  0
LAYER
  5
B76
330
AF8
100
AcDbSymbolTableRecord
100
AcDbLayerTableRecord
  2
Shape040
 70
    0
 62
    7
  6
CONTINUOUS
  0
LAYER
  5
B77
330
AF8
100
AcDbSymbolTableRecord
100
AcDbLayerTableRecord
  2
Shape041
 70
    0
 62
    7
  6
CONTINUOUS
  0
LAYER
  5
B78
330
AF8
100
AcDbSymbolTableRecord
100
AcDbLayerTableRecord
  2
Shape042
 70
    0
 62
    7
  6
CONTINUOUS
  0
LAYER
  5
B79
330
AF8
100
AcDbSymbolTableRecord
100
AcDbLayerTableRecord
  2
Shape043
 70
    0
 62
    7
  6
CONTINUOUS
  0
LAYER
  5
B7A
330
AF8
100
AcDbSymbolTableRecord
100
AcDbLayerTableRecord
  2
Shape044
 70
    0
 62
    7
  6
CONTINUOUS
  0
LAYER
  5
B7B
330
AF8
100
AcDbSymbolTableRecord
100
AcDbLayerTableRecord
  2
Shape045
 70
    0
 62
    7
  6
CONTINUOUS
  0
LAYER
  5
B7C
330
AF8
100
AcDbSymbolTableRecord
100
AcDbLayerTableRecord
  2
Shape046
 70
    0
 62
    7
  6
CONTINUOUS
  0
LAYER
  5
B7D
330
AF8
100
AcDbSymbolTableRecord
100
AcDbLayerTableRecord
  2
Shape047
 70
    0
 62
    7
  6
CONTINUOUS
  0
LAYER
  5
B7E
330
AF8
100
AcDbSymbolTableRecord
100
AcDbLayerTableRecord
  2
Shape048
 70
    0
 62
    7
  6
CONTINUOUS
  0
LAYER
  5
B7F
330
AF8
100
AcDbSymbolTableRecord
100
AcDbLayerTableRecord
  2
Shape049
 70
    0
 62
    7
  6
CONTINUOUS
  0
LAYER
  5
B80
330
AF8
100
AcDbSymbolTableRecord
100
AcDbLayerTableRecord
  2
Shape050
 70
    0
 62
    7
  6
CONTINUOUS
  0
LAYER
  5
B81
330
AF8
100
AcDbSymbolTableRecord
100
AcDbLayerTableRecord
  2
Shape051
 70
    0
 62
    7
  6
CONTINUOUS
  0
LAYER
  5
B82
330
AF8
100
AcDbSymbolTableRecord
100
AcDbLayerTableRecord
  2
Shape052
 70
    0
 62
    7
  6
CONTINUOUS
  0
LAYER
  5
B83
330
AF8
100
AcDbSymbolTableRecord
100
AcDbLayerTableRecord
  2
Shape053
 70
    0
 62
    7
  6
CONTINUOUS
  0
LAYER
  5
B84
330
AF8
100
AcDbSymbolTableRecord
100
AcDbLayerTableRecord
  2
Shape054
 70
    0
 62
    7
  6
CONTINUOUS
  0
LAYER
  5
B85
330
AF8
100
AcDbSymbolTableRecord
100
AcDbLayerTableRecord
  2
Shape055
 70
    0
 62
    7
  6
CONTINUOUS
  0
LAYER
  5
B86
330
AF8
100
AcDbSymbolTableRecord
100
AcDbLayerTableRecord
  2
Shape056
 70
    0
 62
    7
  6
CONTINUOUS
  0
LAYER
  5
B87
330
AF8
100
AcDbSymbolTableRecord
100
AcDbLayerTableRecord
  2
Shape057
 70
    0
 62
    7
  6
CONTINUOUS
  0
LAYER
  5
B88
330
AF8
100
AcDbSymbolTableRecord
100
AcDbLayerTableRecord
  2
Shape058
 70
    0
 62
    7
  6
CONTINUOUS
  0
LAYER
  5
B89
330
AF8
100
AcDbSymbolTableRecord
100
AcDbLayerTableRecord
  2
Shape059
 70
    0
 62
    7
  6
CONTINUOUS
  0
LAYER
  5
B8A
330
AF8
100
AcDbSymbolTableRecord
100
AcDbLayerTableRecord
  2
Shape060
 70
    0
 62
    7
  6
CONTINUOUS
  0
LAYER
  5
B8B
330
AF8
100
AcDbSymbolTableRecord
100
AcDbLayerTableRecord
  2
Shape061
 70
    0
 62
    7
  6
CONTINUOUS
  0
LAYER
  5
B8C
330
AF8
100
AcDbSymbolTableRecord
100
AcDbLayerTableRecord
  2
Shape062
 70
    0
 62
    7
  6
CONTINUOUS
  0
LAYER
  5
B8D
330
AF8
100
AcDbSymbolTableRecord
100
AcDbLayerTableRecord
  2
Shape063
 70
    0
 62
    7
  6
CONTINUOUS
  0
LAYER
  5
B8E
330
AF8
100
AcDbSymbolTableRecord
100
AcDbLayerTableRecord
  2
Shape064
 70
    0
 62
    7
  6
CONTINUOUS
  0
LAYER
  5
B8F
330
AF8
100
AcDbSymbolTableRecord
100
AcDbLayerTableRecord
  2
Shape065
 70
    0
 62
    7
  6
CONTINUOUS
  0
LAYER
  5
B90
330
AF8
100
AcDbSymbolTableRecord
100
AcDbLayerTableRecord
  2
Shape066
 70
    0
 62
    7
  6
CONTINUOUS
  0
LAYER
  5
B91
330
AF8
100
AcDbSymbolTableRecord
100
AcDbLayerTableRecord
  2
Shape067
 70
    0
 62
    7
  6
CONTINUOUS
  0
LAYER
  5
B92
330
AF8
100
AcDbSymbolTableRecord
100
AcDbLayerTableRecord
  2
Shape068
 70
    0
 62
    7
  6
CONTINUOUS
  0
LAYER
  5
B93
330
AF8
100
AcDbSymbolTableRecord
100
AcDbLayerTableRecord
  2
Shape069
 70
    0
 62
    7
  6
CONTINUOUS
  0
LAYER
  5
B94
330
AF8
100
AcDbSymbolTableRecord
100
AcDbLayerTableRecord
  2
Shape070
 70
    0
 62
    7
  6
CONTINUOUS
  0
LAYER
  5
B95
330
AF8
100
AcDbSymbolTableRecord
100
AcDbLayerTableRecord
  2
Shape071
 70
    0
 62
    7
  6
CONTINUOUS
  0
LAYER
  5
B96
330
AF8
100
AcDbSymbolTableRecord
100
AcDbLayerTableRecord
  2
Shape072
 70
    0
 62
    7
  6
CONTINUOUS
  0
LAYER
  5
B97
330
AF8
100
AcDbSymbolTableRecord
100
AcDbLayerTableRecord
  2
Shape073
 70
    0
 62
    7
  6
CONTINUOUS
  0
LAYER
  5
B98
330
AF8
100
AcDbSymbolTableRecord
100
AcDbLayerTableRecord
  2
Shape074
 70
    0
 62
    7
  6
CONTINUOUS
  0
LAYER
  5
B99
330
AF8
100
AcDbSymbolTableRecord
100
AcDbLayerTableRecord
  2
Shape075
 70
    0
 62
    7
  6
CONTINUOUS
  0
LAYER
  5
B9A
330
AF8
100
AcDbSymbolTableRecord
100
AcDbLayerTableRecord
  2
Shape076
 70
    0
 62
    7
  6
CONTINUOUS
  0
LAYER
  5
B9B
330
AF8
100
AcDbSymbolTableRecord
100
AcDbLayerTableRecord
  2
Shape077
 70
    0
 62
    7
  6
CONTINUOUS
  0
LAYER
  5
B9C
330
AF8
100
AcDbSymbolTableRecord
100
AcDbLayerTableRecord
  2
Shape078
 70
    0
 62
    7
  6
CONTINUOUS
  0
LAYER
  5
B9D
330
AF8
100
AcDbSymbolTableRecord
100
AcDbLayerTableRecord
  2
Shape079
 70
    0
 62
    7
  6
CONTINUOUS
  0
LAYER
  5
B9E
330
AF8
100
AcDbSymbolTableRecord
100
AcDbLayerTableRecord
  2
Shape080
 70
    0
 62
    7
  6
CONTINUOUS
  0
LAYER
  5
B9F
330
AF8
100
AcDbSymbolTableRecord
100
AcDbLayerTableRecord
  2
Shape081
 70
    0
 62
    7
  6
CONTINUOUS
  0
LAYER
  5
BA0
330
AF8
100
AcDbSymbolTableRecord
100
AcDbLayerTableRecord
  2
Shape082
 70
    0
 62
    7
  6
CONTINUOUS
  0
LAYER
  5
BA1
330
AF8
100
AcDbSymbolTableRecord
100
AcDbLayerTableRecord
  2
Shape083
 70
    0
 62
    7
  6
CONTINUOUS
  0
LAYER
  5
BA2
330
AF8
100
AcDbSymbolTableRecord
100
AcDbLayerTableRecord
  2
Shape084
 70
    0
 62
    7
  6
CONTINUOUS
  0
LAYER
  5
BA3
330
AF8
100
AcDbSymbolTableRecord
100
AcDbLayerTableRecord
  2
Shape085
 70
    0
 62
    7
  6
CONTINUOUS
  0
LAYER
  5
BA4
330
AF8
100
AcDbSymbolTableRecord
100
AcDbLayerTableRecord
  2
Shape086
 70
    0
 62
    7
  6
CONTINUOUS
  0
LAYER
  5
BA5
330
AF8
100
AcDbSymbolTableRecord
100
AcDbLayerTableRecord
  2
Shape087
 70
    0
 62
    7
  6
CONTINUOUS
  0
LAYER
  5
BA6
330
AF8
100
AcDbSymbolTableRecord
100
AcDbLayerTableRecord
  2
Shape088
 70
    0
 62
    7
  6
CONTINUOUS
  0
LAYER
  5
BA7
330
AF8
100
AcDbSymbolTableRecord
100
AcDbLayerTableRecord
  2
Shape089
 70
    0
 62
    7
  6
CONTINUOUS
  0
LAYER
  5
BA8
330
AF8
100
AcDbSymbolTableRecord
100
AcDbLayerTableRecord
  2
Shape090
 70
    0
 62
    7
  6
CONTINUOUS
  0
LAYER
  5
BA9
330
AF8
100
AcDbSymbolTableRecord
100
AcDbLayerTableRecord
  2
Shape091
 70
    0
 62
    7
  6
CONTINUOUS
  0
LAYER
  5
BAA
330
AF8
100
AcDbSymbolTableRecord
100
AcDbLayerTableRecord
  2
Shape092
 70
    0
 62
    7
  6
CONTINUOUS
  0
LAYER
  5
BAB
330
AF8
100
AcDbSymbolTableRecord
100
AcDbLayerTableRecord
  2
Shape093
 70
    0
 62
    7
  6
CONTINUOUS
  0
LAYER
  5
BAC
330
AF8
100
AcDbSymbolTableRecord
100
AcDbLayerTableRecord
  2
Shape094
 70
    0
 62
    7
  6
CONTINUOUS
  0
LAYER
  5
BAD
330
AF8
100
AcDbSymbolTableRecord
100
AcDbLayerTableRecord
  2
Shape095
 70
    0
 62
    7
  6
CONTINUOUS
  0
LAYER
  5
BAE
330
AF8
100
AcDbSymbolTableRecord
100
AcDbLayerTableRecord
  2
Shape096
 70
    0
 62
    7
  6
CONTINUOUS
  0
LAYER
  5
BAF
330
AF8
100
AcDbSymbolTableRecord
100
AcDbLayerTableRecord
  2
Shape098
 70
    0
 62
    7
  6
CONTINUOUS
  0
LAYER
  5
BB0
330
AF8
100
AcDbSymbolTableRecord
100
AcDbLayerTableRecord
  2
Shape097
 70
    0
 62
    7
  6
CONTINUOUS
  0
LAYER
  5
BB1
330
AF8
100
AcDbSymbolTableRecord
100
AcDbLayerTableRecord
  2
Shape099
 70
    0
 62
    7
  6
CONTINUOUS
  0
LAYER
  5
BB2
330
AF8
100
AcDbSymbolTableRecord
100
AcDbLayerTableRecord
  2
Shape100
 70
    0
 62
    7
  6
CONTINUOUS
  0
LAYER
  5
BB3
330
AF8
100
AcDbSymbolTableRecord
100
AcDbLayerTableRecord
  2
Shape101
 70
    0
 62
    7
  6
CONTINUOUS
  0
LAYER
  5
BB4
330
AF8
100
AcDbSymbolTableRecord
100
AcDbLayerTableRecord
  2
Shape102
 70
    0
 62
    7
  6
CONTINUOUS
  0
LAYER
  5
BB5
330
AF8
100
AcDbSymbolTableRecord
100
AcDbLayerTableRecord
  2
Shape103
 70
    0
 62
    7
  6
CONTINUOUS
  0
LAYER
  5
BB6
330
AF8
100
AcDbSymbolTableRecord
100
AcDbLayerTableRecord
  2
Shape104
 70
    0
 62
    7
  6
CONTINUOUS
  0
LAYER
  5
BB7
330
AF8
100
AcDbSymbolTableRecord
100
AcDbLayerTableRecord
  2
Shape105
 70
    0
 62
    7
  6
CONTINUOUS
  0
LAYER
  5
BB8
330
AF8
100
AcDbSymbolTableRecord
100
AcDbLayerTableRecord
  2
Shape106
 70
    0
 62
    7
  6
CONTINUOUS
  0
LAYER
  5
BB9
330
AF8
100
AcDbSymbolTableRecord
100
AcDbLayerTableRecord
  2
Shape107
 70
    0
 62
    7
  6
CONTINUOUS
  0
LAYER
  5
BBA
330
AF8
100
AcDbSymbolTableRecord
100
AcDbLayerTableRecord
  2
Shape108
 70
    0
 62
    7
  6
CONTINUOUS
  0
LAYER
  5
BBB
330
AF8
100
AcDbSymbolTableRecord
100
AcDbLayerTableRecord
  2
Shape109
 70
    0
 62
    7
  6
CONTINUOUS
  0
LAYER
  5
BBC
330
AF8
100
AcDbSymbolTableRecord
100
AcDbLayerTableRecord
  2
Shape110
 70
    0
 62
    7
  6
CONTINUOUS
  0
LAYER
  5
BBD
330
AF8
100
AcDbSymbolTableRecord
100
AcDbLayerTableRecord
  2
Shape111
 70
    0
 62
    7
  6
CONTINUOUS
  0
LAYER
  5
BBE
330
AF8
100
AcDbSymbolTableRecord
100
AcDbLayerTableRecord
  2
Shape112
 70
    0
 62
    7
  6
CONTINUOUS
  0
LAYER
  5
BBF
330
AF8
100
AcDbSymbolTableRecord
100
AcDbLayerTableRecord
  2
Shape113
 70
    0
 62
    7
  6
CONTINUOUS
  0
LAYER
  5
BC0
330
AF8
100
AcDbSymbolTableRecord
100
AcDbLayerTableRecord
  2
Shape114
 70
    0
 62
    7
  6
CONTINUOUS
  0
LAYER
  5
BC1
330
AF8
100
AcDbSymbolTableRecord
100
AcDbLayerTableRecord
  2
Shape115
 70
    0
 62
    7
  6
CONTINUOUS
  0
LAYER
  5
BC2
330
AF8
100
AcDbSymbolTableRecord
100
AcDbLayerTableRecord
  2
Shape116
 70
    0
 62
    7
  6
CONTINUOUS
  0
LAYER
  5
BC3
330
AF8
100
AcDbSymbolTableRecord
100
AcDbLayerTableRecord
  2
Shape117
 70
    0
 62
    7
  6
CONTINUOUS
  0
LAYER
  5
BC4
330
AF8
100
AcDbSymbolTableRecord
100
AcDbLayerTableRecord
  2
Shape118
 70
    0
 62
    7
  6
CONTINUOUS
  0
LAYER
  5
BC5
330
AF8
100
AcDbSymbolTableRecord
100
AcDbLayerTableRecord
  2
Shape119
 70
    0
 62
    7
  6
CONTINUOUS
  0
LAYER
  5
BC6
330
AF8
100
AcDbSymbolTableRecord
100
AcDbLayerTableRecord
  2
Shape120
 70
    0
 62
    7
  6
CONTINUOUS
  0
LAYER
  5
BC7
330
AF8
100
AcDbSymbolTableRecord
100
AcDbLayerTableRecord
  2
Shape121
 70
    0
 62
    7
  6
CONTINUOUS
  0
LAYER
  5
BC8
330
AF8
100
AcDbSymbolTableRecord
100
AcDbLayerTableRecord
  2
Shape122
 70
    0
 62
    7
  6
CONTINUOUS
  0
LAYER
  5
BC9
330
AF8
100
AcDbSymbolTableRecord
100
AcDbLayerTableRecord
  2
Shape123
 70
    0
 62
    7
  6
CONTINUOUS
  0
LAYER
  5
BCA
330
AF8
100
AcDbSymbolTableRecord
100
AcDbLayerTableRecord
  2
Shape124
 70
    0
 62
    7
  6
CONTINUOUS
  0
LAYER
  5
BCB
330
AF8
100
AcDbSymbolTableRecord
100
AcDbLayerTableRecord
  2
Shape125
 70
    0
 62
    7
  6
CONTINUOUS
  0
LAYER
  5
BCC
330
AF8
100
AcDbSymbolTableRecord
100
AcDbLayerTableRecord
  2
Shape126
 70
    0
 62
    7
  6
CONTINUOUS
  0
LAYER
  5
BCD
330
AF8
100
AcDbSymbolTableRecord
100
AcDbLayerTableRecord
  2
Shape127
 70
    0
 62
    7
  6
CONTINUOUS
  0
LAYER
  5
BCE
330
AF8
100
AcDbSymbolTableRecord
100
AcDbLayerTableRecord
  2
Shape128
 70
    0
 62
    7
  6
CONTINUOUS
  0
LAYER
  5
BCF
330
AF8
100
AcDbSymbolTableRecord
100
AcDbLayerTableRecord
  2
Shape129
 70
    0
 62
    7
  6
CONTINUOUS
  0
LAYER
  5
BD0
330
AF8
100
AcDbSymbolTableRecord
100
AcDbLayerTableRecord
  2
Shape130
 70
    0
 62
    7
  6
CONTINUOUS
  0
LAYER
  5
BD1
330
AF8
100
AcDbSymbolTableRecord
100
AcDbLayerTableRecord
  2
Shape131
 70
    0
 62
    7
  6
CONTINUOUS
  0
LAYER
  5
BD2
330
AF8
100
AcDbSymbolTableRecord
100
AcDbLayerTableRecord
  2
Shape282
 70
    0
 62
    7
  6
CONTINUOUS
  0
LAYER
  5
BD3
330
AF8
100
AcDbSymbolTableRecord
100
AcDbLayerTableRecord
  2
Shape284
 70
    0
 62
    7
  6
CONTINUOUS
  0
LAYER
  5
BD4
330
AF8
100
AcDbSymbolTableRecord
100
AcDbLayerTableRecord
  2
Shape283
 70
    0
 62
    7
  6
CONTINUOUS
  0
LAYER
  5
BD5
330
AF8
100
AcDbSymbolTableRecord
100
AcDbLayerTableRecord
  2
Shape288
 70
    0
 62
    7
  6
CONTINUOUS
  0
LAYER
  5
BD6
330
AF8
100
AcDbSymbolTableRecord
100
AcDbLayerTableRecord
  2
Shape291
 70
    0
 62
    7
  6
CONTINUOUS
  0
LAYER
  5
BD7
330
AF8
100
AcDbSymbolTableRecord
100
AcDbLayerTableRecord
  2
Shape289
 70
    0
 62
    7
  6
CONTINUOUS
  0
LAYER
  5
BD8
330
AF8
100
AcDbSymbolTableRecord
100
AcDbLayerTableRecord
  2
Shape290
 70
    0
 62
    7
  6
CONTINUOUS
  0
LAYER
  5
BD9
330
AF8
100
AcDbSymbolTableRecord
100
AcDbLayerTableRecord
  2
Shape303
 70
    0
 62
    7
  6
CONTINUOUS
  0
LAYER
  5
BDA
330
AF8
100
AcDbSymbolTableRecord
100
AcDbLayerTableRecord
  2
Shape305
 70
    0
 62
    7
  6
CONTINUOUS
  0
LAYER
  5
BDB
330
AF8
100
AcDbSymbolTableRecord
100
AcDbLayerTableRecord
  2
Shape304
 70
    0
 62
    7
  6
CONTINUOUS
  0
LAYER
  5
BDC
330
AF8
100
AcDbSymbolTableRecord
100
AcDbLayerTableRecord
  2
Shape316
 70
    0
 62
    7
  6
CONTINUOUS
  0
LAYER
  5
BDD
330
AF8
100
AcDbSymbolTableRecord
100
AcDbLayerTableRecord
  2
Shape306
 70
    0
 62
    7
  6
CONTINUOUS
  0
LAYER
  5
BDE
330
AF8
100
AcDbSymbolTableRecord
100
AcDbLayerTableRecord
  2
Shape315
 70
    0
 62
    7
  6
CONTINUOUS
  0
LAYER
  5
BDF
330
AF8
100
AcDbSymbolTableRecord
100
AcDbLayerTableRecord
  2
Shape317
 70
    0
 62
    7
  6
CONTINUOUS
  0
LAYER
  5
BE0
330
AF8
100
AcDbSymbolTableRecord
100
AcDbLayerTableRecord
  2
Shape369
 70
    0
 62
    7
  6
CONTINUOUS
  0
LAYER
  5
BE1
330
AF8
100
AcDbSymbolTableRecord
100
AcDbLayerTableRecord
  2
Shape367
 70
    0
 62
    7
  6
CONTINUOUS
  0
LAYER
  5
BE2
330
AF8
100
AcDbSymbolTableRecord
100
AcDbLayerTableRecord
  2
Shape368
 70
    0
 62
    7
  6
CONTINUOUS
  0
LAYER
  5
BE3
330
AF8
100
AcDbSymbolTableRecord
100
AcDbLayerTableRecord
  2
Shape372
 70
    0
 62
    7
  6
CONTINUOUS
  0
LAYER
  5
BE4
330
AF8
100
AcDbSymbolTableRecord
100
AcDbLayerTableRecord
  2
Shape370
 70
    0
 62
    7
  6
CONTINUOUS
  0
LAYER
  5
BE5
330
AF8
100
AcDbSymbolTableRecord
100
AcDbLayerTableRecord
  2
Shape371
 70
    0
 62
    7
  6
CONTINUOUS
  0
LAYER
  5
BE6
330
AF8
100
AcDbSymbolTableRecord
100
AcDbLayerTableRecord
  2
Shape401
 70
    0
 62
    7
  6
CONTINUOUS
  0
LAYER
  5
BE7
330
AF8
100
AcDbSymbolTableRecord
100
AcDbLayerTableRecord
  2
Shape399
 70
    0
 62
    7
  6
CONTINUOUS
  0
LAYER
  5
BE8
330
AF8
100
AcDbSymbolTableRecord
100
AcDbLayerTableRecord
  2
Shape392
 70
    0
 62
    7
  6
CONTINUOUS
  0
LAYER
  5
BE9
330
AF8
100
AcDbSymbolTableRecord
100
AcDbLayerTableRecord
  2
Shape394
 70
    0
 62
    7
  6
CONTINUOUS
  0
LAYER
  5
BEA
330
AF8
100
AcDbSymbolTableRecord
100
AcDbLayerTableRecord
  2
Shape393
 70
    0
 62
    7
  6
CONTINUOUS
  0
ENDTAB
  0
TABLE
  2
STYLE
  5
70
330
0
100
AcDbSymbolTable
 70
     2
  0
STYLE
  5
71
330
70
100
AcDbSymbolTableRecord
100
AcDbTextStyleTableRecord
  2
STANDARD
 70
     0
 40
0.0
 41
1.0
 50
0.0
 71
     0
 42
2.5
  3
arial.ttf
  4

  0
STYLE
  5
72
330
70
100
AcDbSymbolTableRecord
100
AcDbTextStyleTableRecord
  2
ANNOTATIVE
 70
     0
 40
0.0
 41
1.0
 50
0.0
 71
     0
 42
2.5
  3
arial.ttf
  4

  0
ENDTAB
  0
TABLE
  2
VIEW
  5
73
330
0
100
AcDbSymbolTable
 70
     0
  0
ENDTAB
  0
TABLE
  2
UCS
  5
74
330
0
100
AcDbSymbolTable
 70
     0
  0
ENDTAB
  0
TABLE
  2
APPID
  5
75
330
0
100
AcDbSymbolTable
 70
     2
  0
APPID
  5
76
330
75
100
AcDbSymbolTableRecord
100
AcDbRegAppTableRecord
  2
ACAD
 70
     0
  0
APPID
  5
77
330
75
100
AcDbSymbolTableRecord
100
AcDbRegAppTableRecord
  2
ACADANNOTATIVE
 70
     0
  0
ENDTAB
  0
TABLE
  2
DIMSTYLE
  5
78
330
0
100
AcDbSymbolTable
 70
     2
  0
DIMSTYLE
105
79
330
78
100
AcDbSymbolTableRecord
100
AcDbDimStyleTableRecord
  2
STANDARD
 70
     0
  3

  4

  5

  6

  7

 40
0.0
 41
2.5
 42
0.625
 43
3.75
 44
1.25
 45
0.0
 46
0.0
 47
0.0
 48
0.0
140
2.5
141
2.5
142
0.0
143
0.03937007874016
144
1.0
145
0.0
146
1.0
147
0.625
 71
     0
 72
     0
 73
     0
 74
     0
 75
     0
 76
     0
 77
     1
 78
     8
170
     0
171
     3
172
     1
173
     0
174
     0
175
     0
176
     0
177
     0
178
     0
270
     2
271
     2
272
     2
273
     2
274
     3
340
71
275
     0
280
     0
281
     0
282
     0
283
     0
284
     8
285
     0
286
     0
287
     3
288
     0
  0
ENDTAB
  0
TABLE
  2
BLOCK_RECORD
  5
A01
330
0
100
AcDbSymbolTable
  70
5
  0
BLOCK_RECORD
  5
A02
330
A01
100
AcDbSymbolTableRecord
100
AcDbBlockTableRecord
  2
*MODEL_SPACE
  0
BLOCK_RECORD
  5
A03
330
A01
100
AcDbSymbolTableRecord
100
AcDbBlockTableRecord
  2
*PAPER_SPACE
  0
ENDTAB
  0
ENDSEC
  0
SECTION
  2
BLOCKS
  0
BLOCK
  5
A04
330
A02
100
AcDbEntity
  8
0
100
AcDbBlockBegin
  2
*MODEL_SPACE
 70
   0
 10
0
 20
0
 30
0
  3
*MODEL_SPACE
  1
 
  0
ENDBLK
  5
A05
330
A02
100
AcDbEntity
  8
0
100
AcDbBlockEnd
  0
BLOCK
  5
A06
330
A03
100
AcDbEntity
 67
1
  8
0
100
AcDbBlockBegin
  2
*PAPER_SPACE
 70
   0
 10
0
 20
0
 30
0
  3
*PAPER_SPACE
  1
 
  0
ENDBLK
  5
A07
330
A03
100
AcDbEntity
 67
    1
  8
0
100
AcDbBlockEnd
  0
ENDSEC
  0
SECTION
  2
ENTITIES
  0
LINE
  5
A08
330
A02
100
AcDbEntity
  8
Shape297
100
AcDbLine
 10
-96.3387
 20
-30.6137
 30
0
 11
-95.8275
 21
-30.7224
 31
0
  0
LINE
  5
A09
330
A02
100
AcDbEntity
  8
Shape298
100
AcDbLine
 10
-95.8275
 20
-30.7224
 30
0
 11
-95.35
 21
-30.9349
 31
0
  0
LINE
  5
A0A
330
A02
100
AcDbEntity
  8
Shape307
100
AcDbLine
 10
-94.5775
 20
-34.5695
 30
0
 11
-94.9272
 21
-34.9579
 31
0
  0
LINE
  5
A0B
330
A02
100
AcDbEntity
  8
Shape323
100
AcDbLine
 10
-75.0728
 20
-31.2421
 30
0
 11
-74.65
 21
-30.9349
 31
0
  0
LINE
  5
A0C
330
A02
100
AcDbEntity
  8
Shape309
100
AcDbLine
 10
-95.35
 20
-35.2651
 30
0
 11
-95.8275
 21
-35.4776
 31
0
  0
LINE
  5
A0D
330
A02
100
AcDbEntity
  8
Shape310
100
AcDbLine
 10
-95.8275
 20
-35.4776
 30
0
 11
-96.3387
 21
-35.5863
 31
0
  0
LINE
  5
A0E
330
A02
100
AcDbEntity
  8
Shape322
100
AcDbLine
 10
-75.4225
 20
-31.6305
 30
0
 11
-75.0728
 21
-31.2421
 31
0
  0
LINE
  5
A0F
330
A02
100
AcDbEntity
  8
Shape325
100
AcDbLine
 10
-74.1725
 20
-30.7224
 30
0
 11
-73.6613
 21
-30.6137
 31
0
  0
LINE
  5
A10
330
A02
100
AcDbEntity
  8
Shape324
100
AcDbLine
 10
-74.65
 20
-30.9349
 30
0
 11
-74.1725
 21
-30.7224
 31
0
  0
LINE
  5
A11
330
A02
100
AcDbEntity
  8
Shape331
100
AcDbLine
 10
-71.3775
 20
-31.6305
 30
0
 11
-71.1161
 21
-32.0831
 31
0
  0
LINE
  5
A12
330
A02
100
AcDbEntity
  8
Shape333
100
AcDbLine
 10
-70.9546
 20
-32.5802
 30
0
 11
-70.9
 21
-33.1
 31
0
  0
LINE
  5
A13
330
A02
100
AcDbEntity
  8
Shape332
100
AcDbLine
 10
-71.1161
 20
-32.0831
 30
0
 11
-70.9546
 21
-32.5802
 31
0
  0
LINE
  5
A14
330
A02
100
AcDbEntity
  8
Shape343
100
AcDbLine
 10
72.6275
 20
-35.4776
 30
0
 11
72.15
 21
-35.2651
 31
0
  0
LINE
  5
A15
330
A02
100
AcDbEntity
  8
Shape334
100
AcDbLine
 10
-70.9
 20
-33.1
 30
0
 11
-70.9546
 21
-33.6198
 31
0
  0
LINE
  5
A16
330
A02
100
AcDbEntity
  8
Shape342
100
AcDbLine
 10
73.1387
 20
-35.5863
 30
0
 11
72.6275
 21
-35.4776
 31
0
  0
LINE
  5
A17
330
A02
100
AcDbEntity
  8
Shape358
100
AcDbLine
 10
74.1725
 20
-30.7224
 30
0
 11
74.65
 21
-30.9349
 31
0
  0
LINE
  5
A18
330
A02
100
AcDbEntity
  8
Shape356
100
AcDbLine
 10
73.1387
 20
-30.6137
 30
0
 11
73.6613
 21
-30.6137
 31
0
  0
LINE
  5
A19
330
A02
100
AcDbEntity
  8
Shape344
100
AcDbLine
 10
72.15
 20
-35.2651
 30
0
 11
71.7272
 21
-34.9579
 31
0
  0
LINE
  5
A1A
330
A02
100
AcDbEntity
  8
Shape357
100
AcDbLine
 10
73.6613
 20
-30.6137
 30
0
 11
74.1725
 21
-30.7224
 31
0
  0
LINE
  5
A1B
330
A02
100
AcDbEntity
  8
Shape299
100
AcDbLine
 10
-95.35
 20
-30.9349
 30
0
 11
-94.9272
 21
-31.2421
 31
0
  0
LINE
  5
A1C
330
A02
100
AcDbEntity
  8
Shape296
100
AcDbLine
 10
-96.8613
 20
-30.6137
 30
0
 11
-96.3387
 21
-30.6137
 31
0
  0
LINE
  5
A1D
330
A02
100
AcDbEntity
  8
Shape308
100
AcDbLine
 10
-94.9272
 20
-34.9579
 30
0
 11
-95.35
 21
-35.2651
 31
0
  0
LINE
  5
A1E
330
A02
100
AcDbEntity
  8
Shape314
100
AcDbLine
 10
-74.65
 20
-35.2651
 30
0
 11
-75.0728
 21
-34.9579
 31
0
  0
LINE
  5
A1F
330
A02
100
AcDbEntity
  8
Shape313
100
AcDbLine
 10
-74.1725
 20
-35.4776
 30
0
 11
-74.65
 21
-35.2651
 31
0
  0
LINE
  5
A20
330
A02
100
AcDbEntity
  8
Shape321
100
AcDbLine
 10
-75.6839
 20
-32.0831
 30
0
 11
-75.4225
 21
-31.6305
 31
0
  0
LINE
  5
A21
330
A02
100
AcDbEntity
  8
Shape285
100
AcDbLine
 10
-98.2728
 20
-34.9579
 30
0
 11
-98.6225
 21
-34.5695
 31
0
  0
LINE
  5
A22
330
A02
100
AcDbEntity
  8
Shape292
100
AcDbLine
 10
-98.6225
 20
-31.6305
 30
0
 11
-98.2728
 21
-31.2421
 31
0
  0
LINE
  5
A23
330
A02
100
AcDbEntity
  8
Shape286
100
AcDbLine
 10
-98.6225
 20
-34.5695
 30
0
 11
-98.8839
 21
-34.1168
 31
0
  0
LINE
  5
A24
330
A02
100
AcDbEntity
  8
Shape287
100
AcDbLine
 10
-98.8839
 20
-34.1168
 30
0
 11
-99.0454
 21
-33.6198
 31
0
  0
LINE
  5
A25
330
A02
100
AcDbEntity
  8
Shape294
100
AcDbLine
 10
-97.85
 20
-30.9349
 30
0
 11
-97.3725
 21
-30.7224
 31
0
  0
LINE
  5
A26
330
A02
100
AcDbEntity
  8
Shape293
100
AcDbLine
 10
-98.2728
 20
-31.2421
 30
0
 11
-97.85
 21
-30.9349
 31
0
  0
LINE
  5
A27
330
A02
100
AcDbEntity
  8
Shape301
100
AcDbLine
 10
-94.5775
 20
-31.6305
 30
0
 11
-94.3161
 21
-32.0831
 31
0
  0
LINE
  5
A28
330
A02
100
AcDbEntity
  8
Shape295
100
AcDbLine
 10
-97.3725
 20
-30.7224
 30
0
 11
-96.8613
 21
-30.6137
 31
0
  0
LINE
  5
A29
330
A02
100
AcDbEntity
  8
Shape300
100
AcDbLine
 10
-94.9272
 20
-31.2421
 30
0
 11
-94.5775
 21
-31.6305
 31
0
  0
LINE
  5
A2A
330
A02
100
AcDbEntity
  8
Shape302
100
AcDbLine
 10
-94.3161
 20
-32.0831
 30
0
 11
-94.1546
 21
-32.5802
 31
0
  0
LINE
  5
A2B
330
A02
100
AcDbEntity
  8
Shape311
100
AcDbLine
 10
-96.3387
 20
-35.5863
 30
0
 11
-96.8613
 21
-35.5863
 31
0
  0
LINE
  5
A2C
330
A02
100
AcDbEntity
  8
Shape336
100
AcDbLine
 10
-71.1161
 20
-34.1168
 30
0
 11
-71.3775
 21
-34.5695
 31
0
  0
LINE
  5
A2D
330
A02
100
AcDbEntity
  8
Shape327
100
AcDbLine
 10
-73.1387
 20
-30.6137
 30
0
 11
-72.6275
 21
-30.7224
 31
0
  0
LINE
  5
A2E
330
A02
100
AcDbEntity
  8
Shape312
100
AcDbLine
 10
-73.6613
 20
-35.5863
 30
0
 11
-74.1725
 21
-35.4776
 31
0
  0
LINE
  5
A2F
330
A02
100
AcDbEntity
  8
Shape318
100
AcDbLine
 10
-75.8454
 20
-33.6198
 30
0
 11
-75.9
 21
-33.1
 31
0
  0
LINE
  5
A30
330
A02
100
AcDbEntity
  8
Shape319
100
AcDbLine
 10
-75.9
 20
-33.1
 30
0
 11
-75.8454
 21
-32.5802
 31
0
  0
LINE
  5
A31
330
A02
100
AcDbEntity
  8
Shape320
100
AcDbLine
 10
-75.8454
 20
-32.5802
 30
0
 11
-75.6839
 21
-32.0831
 31
0
  0
LINE
  5
A32
330
A02
100
AcDbEntity
  8
Shape326
100
AcDbLine
 10
-73.6613
 20
-30.6137
 30
0
 11
-73.1387
 21
-30.6137
 31
0
  0
LINE
  5
A33
330
A02
100
AcDbEntity
  8
Shape335
100
AcDbLine
 10
-70.9546
 20
-33.6198
 30
0
 11
-71.1161
 21
-34.1168
 31
0
  0
LINE
  5
A34
330
A02
100
AcDbEntity
  8
Shape349
100
AcDbLine
 10
70.9
 20
-33.1
 30
0
 11
70.9546
 21
-32.5802
 31
0
  0
LINE
  5
A35
330
A02
100
AcDbEntity
  8
Shape382
100
AcDbLine
 10
94.5775
 20
-31.6305
 30
0
 11
94.9272
 21
-31.2421
 31
0
  0
LINE
  5
A36
330
A02
100
AcDbEntity
  8
Shape355
100
AcDbLine
 10
72.6275
 20
-30.7224
 30
0
 11
73.1387
 21
-30.6137
 31
0
  0
LINE
  5
A37
330
A02
100
AcDbEntity
  8
Shape328
100
AcDbLine
 10
-72.6275
 20
-30.7224
 30
0
 11
-72.15
 21
-30.9349
 31
0
  0
LINE
  5
A38
330
A02
100
AcDbEntity
  8
Shape346
100
AcDbLine
 10
71.3775
 20
-34.5695
 30
0
 11
71.1161
 21
-34.1168
 31
0
  0
LINE
  5
A39
330
A02
100
AcDbEntity
  8
Shape345
100
AcDbLine
 10
71.7272
 20
-34.9579
 30
0
 11
71.3775
 21
-34.5695
 31
0
  0
LINE
  5
A3A
330
A02
100
AcDbEntity
  8
Shape348
100
AcDbLine
 10
70.9546
 20
-33.6198
 30
0
 11
70.9
 21
-33.1
 31
0
  0
LINE
  5
A3B
330
A02
100
AcDbEntity
  8
Shape347
100
AcDbLine
 10
71.1161
 20
-34.1168
 30
0
 11
70.9546
 21
-33.6198
 31
0
  0
LINE
  5
A3C
330
A02
100
AcDbEntity
  8
Shape352
100
AcDbLine
 10
71.3775
 20
-31.6305
 30
0
 11
71.7272
 21
-31.2421
 31
0
  0
LINE
  5
A3D
330
A02
100
AcDbEntity
  8
Shape350
100
AcDbLine
 10
70.9546
 20
-32.5802
 30
0
 11
71.1161
 21
-32.0831
 31
0
  0
LINE
  5
A3E
330
A02
100
AcDbEntity
  8
Shape351
100
AcDbLine
 10
71.1161
 20
-32.0831
 30
0
 11
71.3775
 21
-31.6305
 31
0
  0
LINE
  5
A3F
330
A02
100
AcDbEntity
  8
Shape353
100
AcDbLine
 10
71.7272
 20
-31.2421
 30
0
 11
72.15
 21
-30.9349
 31
0
  0
LINE
  5
A40
330
A02
100
AcDbEntity
  8
Shape359
100
AcDbLine
 10
74.65
 20
-30.9349
 30
0
 11
75.0728
 21
-31.2421
 31
0
  0
LINE
  5
A41
330
A02
100
AcDbEntity
  8
Shape360
100
AcDbLine
 10
75.0728
 20
-31.2421
 30
0
 11
75.4225
 21
-31.6305
 31
0
  0
LINE
  5
A42
330
A02
100
AcDbEntity
  8
Shape354
100
AcDbLine
 10
72.15
 20
-30.9349
 30
0
 11
72.6275
 21
-30.7224
 31
0
  0
LINE
  5
A43
330
A02
100
AcDbEntity
  8
Shape361
100
AcDbLine
 10
75.4225
 20
-31.6305
 30
0
 11
75.6839
 21
-32.0831
 31
0
  0
LINE
  5
A44
330
A02
100
AcDbEntity
  8
Shape362
100
AcDbLine
 10
75.6839
 20
-32.0831
 30
0
 11
75.8454
 21
-32.5802
 31
0
  0
LINE
  5
A45
330
A02
100
AcDbEntity
  8
Shape364
100
AcDbLine
 10
75.9
 20
-33.1
 30
0
 11
75.8454
 21
-33.6198
 31
0
  0
LINE
  5
A46
330
A02
100
AcDbEntity
  8
Shape365
100
AcDbLine
 10
75.8454
 20
-33.6198
 30
0
 11
75.6839
 21
-34.1168
 31
0
  0
LINE
  5
A47
330
A02
100
AcDbEntity
  8
Shape373
100
AcDbLine
 10
95.8275
 20
-35.4776
 30
0
 11
95.35
 21
-35.2651
 31
0
  0
LINE
  5
A48
330
A02
100
AcDbEntity
  8
Shape391
100
AcDbLine
 10
98.6225
 20
-31.6305
 30
0
 11
98.8839
 21
-32.0831
 31
0
  0
LINE
  5
A49
330
A02
100
AcDbEntity
  8
Shape363
100
AcDbLine
 10
75.8454
 20
-32.5802
 30
0
 11
75.9
 21
-33.1
 31
0
  0
LINE
  5
A4A
330
A02
100
AcDbEntity
  8
Shape374
100
AcDbLine
 10
95.35
 20
-35.2651
 30
0
 11
94.9272
 21
-34.9579
 31
0
  0
LINE
  5
A4B
330
A02
100
AcDbEntity
  8
Shape366
100
AcDbLine
 10
75.6839
 20
-34.1168
 30
0
 11
75.4225
 21
-34.5695
 31
0
  0
LINE
  5
A4C
330
A02
100
AcDbEntity
  8
Shape376
100
AcDbLine
 10
94.5775
 20
-34.5695
 30
0
 11
94.3161
 21
-34.1168
 31
0
  0
LINE
  5
A4D
330
A02
100
AcDbEntity
  8
Shape375
100
AcDbLine
 10
94.9272
 20
-34.9579
 30
0
 11
94.5775
 21
-34.5695
 31
0
  0
LINE
  5
A4E
330
A02
100
AcDbEntity
  8
Shape381
100
AcDbLine
 10
94.3161
 20
-32.0831
 30
0
 11
94.5775
 21
-31.6305
 31
0
  0
LINE
  5
A4F
330
A02
100
AcDbEntity
  8
Shape388
100
AcDbLine
 10
97.3725
 20
-30.7224
 30
0
 11
97.85
 21
-30.9349
 31
0
  0
LINE
  5
A50
330
A02
100
AcDbEntity
  8
Shape396
100
AcDbLine
 10
98.8839
 20
-34.1168
 30
0
 11
98.6225
 21
-34.5695
 31
0
  0
LINE
  5
A51
330
A02
100
AcDbEntity
  8
Shape397
100
AcDbLine
 10
98.6225
 20
-34.5695
 30
0
 11
98.2728
 21
-34.9579
 31
0
  0
LINE
  5
A52
330
A02
100
AcDbEntity
  8
Shape398
100
AcDbLine
 10
98.2728
 20
-34.9579
 30
0
 11
97.85
 21
-35.2651
 31
0
  0
LINE
  5
A53
330
A02
100
AcDbEntity
  8
Shape383
100
AcDbLine
 10
94.9272
 20
-31.2421
 30
0
 11
95.35
 21
-30.9349
 31
0
  0
LINE
  5
A54
330
A02
100
AcDbEntity
  8
Shape390
100
AcDbLine
 10
98.2728
 20
-31.2421
 30
0
 11
98.6225
 21
-31.6305
 31
0
  0
LINE
  5
A55
330
A02
100
AcDbEntity
  8
Shape389
100
AcDbLine
 10
97.85
 20
-30.9349
 30
0
 11
98.2728
 21
-31.2421
 31
0
  0
LINE
  5
A56
330
A02
100
AcDbEntity
  8
Shape395
100
AcDbLine
 10
99.0454
 20
-33.6198
 30
0
 11
98.8839
 21
-34.1168
 31
0
  0
LINE
  5
A57
330
A02
100
AcDbEntity
  8
Shape016
100
AcDbLine
 10
94.5775
 20
-11.3695
 30
0
 11
94.3161
 21
-10.9168
 31
0
  0
LINE
  5
A58
330
A02
100
AcDbEntity
  8
Shape017
100
AcDbLine
 10
94.3161
 20
-10.9168
 30
0
 11
94.1546
 21
-10.4198
 31
0
  0
LINE
  5
A59
330
A02
100
AcDbEntity
  8
Shape018
100
AcDbLine
 10
94.1546
 20
-10.4198
 30
0
 11
94.1
 21
-9.89999
 31
0
  0
LINE
  5
A5A
330
A02
100
AcDbEntity
  8
Shape019
100
AcDbLine
 10
94.1
 20
-9.89999
 30
0
 11
94.1546
 21
-9.38022
 31
0
  0
LINE
  5
A5B
330
A02
100
AcDbEntity
  8
Shape013
100
AcDbLine
 10
95.8275
 20
-12.2776
 30
0
 11
95.35
 21
-12.0651
 31
0
  0
LINE
  5
A5C
330
A02
100
AcDbEntity
  8
Shape014
100
AcDbLine
 10
95.35
 20
-12.0651
 30
0
 11
94.9272
 21
-11.7579
 31
0
  0
LINE
  5
A5D
330
A02
100
AcDbEntity
  8
Shape015
100
AcDbLine
 10
94.9272
 20
-11.7579
 30
0
 11
94.5775
 21
-11.3695
 31
0
  0
LINE
  5
A5E
330
A02
100
AcDbEntity
  8
Shape012
100
AcDbLine
 10
96.3387
 20
-12.3863
 30
0
 11
95.8275
 21
-12.2776
 31
0
  0
LINE
  5
A5F
330
A02
100
AcDbEntity
  8
Shape329
100
AcDbLine
 10
-72.15
 20
-30.9349
 30
0
 11
-71.7272
 21
-31.2421
 31
0
  0
LINE
  5
A60
330
A02
100
AcDbEntity
  8
Shape338
100
AcDbLine
 10
-71.7272
 20
-34.9579
 30
0
 11
-72.15
 21
-35.2651
 31
0
  0
LINE
  5
A61
330
A02
100
AcDbEntity
  8
Shape330
100
AcDbLine
 10
-71.7272
 20
-31.2421
 30
0
 11
-71.3775
 21
-31.6305
 31
0
  0
LINE
  5
A62
330
A02
100
AcDbEntity
  8
Shape337
100
AcDbLine
 10
-71.3775
 20
-34.5695
 30
0
 11
-71.7272
 21
-34.9579
 31
0
  0
LINE
  5
A63
330
A02
100
AcDbEntity
  8
Shape341
100
AcDbLine
 10
-73.1387
 20
-35.5863
 30
0
 11
-73.6613
 21
-35.5863
 31
0
  0
LINE
  5
A64
330
A02
100
AcDbEntity
  8
Shape339
100
AcDbLine
 10
-72.15
 20
-35.2651
 30
0
 11
-72.6275
 21
-35.4776
 31
0
  0
LINE
  5
A65
330
A02
100
AcDbEntity
  8
Shape340
100
AcDbLine
 10
-72.6275
 20
-35.4776
 30
0
 11
-73.1387
 21
-35.5863
 31
0
  0
LINE
  5
A66
330
A02
100
AcDbEntity
  8
Shape378
100
AcDbLine
 10
94.1546
 20
-33.6198
 30
0
 11
94.1
 21
-33.1
 31
0
  0
LINE
  5
A67
330
A02
100
AcDbEntity
  8
Shape377
100
AcDbLine
 10
94.3161
 20
-34.1168
 30
0
 11
94.1546
 21
-33.6198
 31
0
  0
LINE
  5
A68
330
A02
100
AcDbEntity
  8
Shape380
100
AcDbLine
 10
94.1546
 20
-32.5802
 30
0
 11
94.3161
 21
-32.0831
 31
0
  0
LINE
  5
A69
330
A02
100
AcDbEntity
  8
Shape379
100
AcDbLine
 10
94.1
 20
-33.1
 30
0
 11
94.1546
 21
-32.5802
 31
0
  0
LINE
  5
A6A
330
A02
100
AcDbEntity
  8
Shape384
100
AcDbLine
 10
95.35
 20
-30.9349
 30
0
 11
95.8275
 21
-30.7224
 31
0
  0
LINE
  5
A6B
330
A02
100
AcDbEntity
  8
Shape385
100
AcDbLine
 10
95.8275
 20
-30.7224
 30
0
 11
96.3387
 21
-30.6137
 31
0
  0
LINE
  5
A6C
330
A02
100
AcDbEntity
  8
Shape387
100
AcDbLine
 10
96.8613
 20
-30.6137
 30
0
 11
97.3725
 21
-30.7224
 31
0
  0
LINE
  5
A6D
330
A02
100
AcDbEntity
  8
Shape386
100
AcDbLine
 10
96.3387
 20
-30.6137
 30
0
 11
96.8613
 21
-30.6137
 31
0
  0
LINE
  5
A6E
330
A02
100
AcDbEntity
  8
Shape400
100
AcDbLine
 10
97.3725
 20
-35.4776
 30
0
 11
96.8613
 21
-35.5863
 31
0
  0
LINE
  5
A6F
330
A02
100
AcDbEntity
  8
Shape020
100
AcDbLine
 10
94.1546
 20
-9.38022
 30
0
 11
94.3161
 21
-8.88315
 31
0
  0
LINE
  5
A70
330
A02
100
AcDbEntity
  8
Shape021
100
AcDbLine
 10
94.3161
 20
-8.88315
 30
0
 11
94.5775
 21
-8.43053
 31
0
  0
LINE
  5
A71
330
A02
100
AcDbEntity
  8
Shape022
100
AcDbLine
 10
94.5775
 20
-8.43053
 30
0
 11
94.9272
 21
-8.04213
 31
0
  0
LINE
  5
A72
330
A02
100
AcDbEntity
  8
Shape023
100
AcDbLine
 10
94.9272
 20
-8.04213
 30
0
 11
95.35
 21
-7.73492
 31
0
  0
LINE
  5
A73
330
A02
100
AcDbEntity
  8
Shape024
100
AcDbLine
 10
95.35
 20
-7.73492
 30
0
 11
95.8275
 21
-7.52235
 31
0
  0
LINE
  5
A74
330
A02
100
AcDbEntity
  8
Shape025
100
AcDbLine
 10
95.8275
 20
-7.52235
 30
0
 11
96.3387
 21
-7.41368
 31
0
  0
LINE
  5
A75
330
A02
100
AcDbEntity
  8
Shape026
100
AcDbLine
 10
96.3387
 20
-7.41368
 30
0
 11
96.8613
 21
-7.41368
 31
0
  0
LINE
  5
A76
330
A02
100
AcDbEntity
  8
Shape027
100
AcDbLine
 10
96.8613
 20
-7.41368
 30
0
 11
97.3725
 21
-7.52235
 31
0
  0
LINE
  5
A77
330
A02
100
AcDbEntity
  8
Shape028
100
AcDbLine
 10
97.3725
 20
-7.52235
 30
0
 11
97.85
 21
-7.73492
 31
0
  0
LINE
  5
A78
330
A02
100
AcDbEntity
  8
Shape029
100
AcDbLine
 10
97.85
 20
-7.73492
 30
0
 11
98.2728
 21
-8.04213
 31
0
  0
LINE
  5
A79
330
A02
100
AcDbEntity
  8
Shape030
100
AcDbLine
 10
98.2728
 20
-8.04213
 30
0
 11
98.6225
 21
-8.43053
 31
0
  0
LINE
  5
A7A
330
A02
100
AcDbEntity
  8
Shape031
100
AcDbLine
 10
98.6225
 20
-8.43053
 30
0
 11
98.8839
 21
-8.88315
 31
0
  0
LINE
  5
A7B
330
A02
100
AcDbEntity
  8
Shape032
100
AcDbLine
 10
98.8839
 20
-8.88315
 30
0
 11
99.0454
 21
-9.38022
 31
0
  0
LINE
  5
A7C
330
A02
100
AcDbEntity
  8
Shape033
100
AcDbLine
 10
99.0454
 20
-9.38022
 30
0
 11
99.1
 21
-9.89999
 31
0
  0
LINE
  5
A7D
330
A02
100
AcDbEntity
  8
Shape034
100
AcDbLine
 10
99.1
 20
-9.89999
 30
0
 11
99.0454
 21
-10.4198
 31
0
  0
LINE
  5
A7E
330
A02
100
AcDbEntity
  8
Shape035
100
AcDbLine
 10
99.0454
 20
-10.4198
 30
0
 11
98.8839
 21
-10.9168
 31
0
  0
LINE
  5
A7F
330
A02
100
AcDbEntity
  8
Shape036
100
AcDbLine
 10
98.8839
 20
-10.9168
 30
0
 11
98.6225
 21
-11.3695
 31
0
  0
LINE
  5
A80
330
A02
100
AcDbEntity
  8
Shape037
100
AcDbLine
 10
98.6225
 20
-11.3695
 30
0
 11
98.2728
 21
-11.7579
 31
0
  0
LINE
  5
A81
330
A02
100
AcDbEntity
  8
Shape038
100
AcDbLine
 10
98.2728
 20
-11.7579
 30
0
 11
97.85
 21
-12.0651
 31
0
  0
LINE
  5
A82
330
A02
100
AcDbEntity
  8
Shape039
100
AcDbLine
 10
97.85
 20
-12.0651
 30
0
 11
97.3725
 21
-12.2776
 31
0
  0
LINE
  5
A83
330
A02
100
AcDbEntity
  8
Shape040
100
AcDbLine
 10
97.3725
 20
-12.2776
 30
0
 11
96.8613
 21
-12.3863
 31
0
  0
LINE
  5
A84
330
A02
100
AcDbEntity
  8
Shape041
100
AcDbLine
 10
96.8613
 20
-12.3863
 30
0
 11
96.3387
 21
-12.3863
 31
0
  0
LINE
  5
A85
330
A02
100
AcDbEntity
  8
Shape042
100
AcDbLine
 10
73.1387
 20
-12.3863
 30
0
 11
72.6275
 21
-12.2776
 31
0
  0
LINE
  5
A86
330
A02
100
AcDbEntity
  8
Shape043
100
AcDbLine
 10
72.6275
 20
-12.2776
 30
0
 11
72.15
 21
-12.0651
 31
0
  0
LINE
  5
A87
330
A02
100
AcDbEntity
  8
Shape044
100
AcDbLine
 10
72.15
 20
-12.0651
 30
0
 11
71.7272
 21
-11.7579
 31
0
  0
LINE
  5
A88
330
A02
100
AcDbEntity
  8
Shape045
100
AcDbLine
 10
71.7272
 20
-11.7579
 30
0
 11
71.3775
 21
-11.3695
 31
0
  0
LINE
  5
A89
330
A02
100
AcDbEntity
  8
Shape046
100
AcDbLine
 10
71.3775
 20
-11.3695
 30
0
 11
71.1161
 21
-10.9168
 31
0
  0
LINE
  5
A8A
330
A02
100
AcDbEntity
  8
Shape047
100
AcDbLine
 10
71.1161
 20
-10.9168
 30
0
 11
70.9546
 21
-10.4198
 31
0
  0
LINE
  5
A8B
330
A02
100
AcDbEntity
  8
Shape048
100
AcDbLine
 10
70.9546
 20
-10.4198
 30
0
 11
70.9
 21
-9.89999
 31
0
  0
LINE
  5
A8C
330
A02
100
AcDbEntity
  8
Shape049
100
AcDbLine
 10
70.9
 20
-9.89999
 30
0
 11
70.9546
 21
-9.38022
 31
0
  0
LINE
  5
A8D
330
A02
100
AcDbEntity
  8
Shape050
100
AcDbLine
 10
70.9546
 20
-9.38022
 30
0
 11
71.1161
 21
-8.88315
 31
0
  0
LINE
  5
A8E
330
A02
100
AcDbEntity
  8
Shape051
100
AcDbLine
 10
71.1161
 20
-8.88315
 30
0
 11
71.3775
 21
-8.43053
 31
0
  0
LINE
  5
A8F
330
A02
100
AcDbEntity
  8
Shape052
100
AcDbLine
 10
71.3775
 20
-8.43053
 30
0
 11
71.7272
 21
-8.04213
 31
0
  0
LINE
  5
A90
330
A02
100
AcDbEntity
  8
Shape053
100
AcDbLine
 10
71.7272
 20
-8.04213
 30
0
 11
72.15
 21
-7.73492
 31
0
  0
LINE
  5
A91
330
A02
100
AcDbEntity
  8
Shape054
100
AcDbLine
 10
72.15
 20
-7.73492
 30
0
 11
72.6275
 21
-7.52235
 31
0
  0
LINE
  5
A92
330
A02
100
AcDbEntity
  8
Shape055
100
AcDbLine
 10
72.6275
 20
-7.52235
 30
0
 11
73.1387
 21
-7.41368
 31
0
  0
LINE
  5
A93
330
A02
100
AcDbEntity
  8
Shape056
100
AcDbLine
 10
73.1387
 20
-7.41368
 30
0
 11
73.6613
 21
-7.41368
 31
0
  0
LINE
  5
A94
330
A02
100
AcDbEntity
  8
Shape057
100
AcDbLine
 10
73.6613
 20
-7.41368
 30
0
 11
74.1725
 21
-7.52235
 31
0
  0
LINE
  5
A95
330
A02
100
AcDbEntity
  8
Shape058
100
AcDbLine
 10
74.1725
 20
-7.52235
 30
0
 11
74.65
 21
-7.73492
 31
0
  0
LINE
  5
A96
330
A02
100
AcDbEntity
  8
Shape059
100
AcDbLine
 10
74.65
 20
-7.73492
 30
0
 11
75.0728
 21
-8.04213
 31
0
  0
LINE
  5
A97
330
A02
100
AcDbEntity
  8
Shape060
100
AcDbLine
 10
75.0728
 20
-8.04213
 30
0
 11
75.4225
 21
-8.43053
 31
0
  0
LINE
  5
A98
330
A02
100
AcDbEntity
  8
Shape061
100
AcDbLine
 10
75.4225
 20
-8.43053
 30
0
 11
75.6839
 21
-8.88315
 31
0
  0
LINE
  5
A99
330
A02
100
AcDbEntity
  8
Shape062
100
AcDbLine
 10
75.6839
 20
-8.88315
 30
0
 11
75.8454
 21
-9.38022
 31
0
  0
LINE
  5
A9A
330
A02
100
AcDbEntity
  8
Shape063
100
AcDbLine
 10
75.8454
 20
-9.38022
 30
0
 11
75.9
 21
-9.89999
 31
0
  0
LINE
  5
A9B
330
A02
100
AcDbEntity
  8
Shape064
100
AcDbLine
 10
75.9
 20
-9.89999
 30
0
 11
75.8454
 21
-10.4198
 31
0
  0
LINE
  5
A9C
330
A02
100
AcDbEntity
  8
Shape065
100
AcDbLine
 10
75.8454
 20
-10.4198
 30
0
 11
75.6839
 21
-10.9168
 31
0
  0
LINE
  5
A9D
330
A02
100
AcDbEntity
  8
Shape066
100
AcDbLine
 10
75.6839
 20
-10.9168
 30
0
 11
75.4225
 21
-11.3695
 31
0
  0
LINE
  5
A9E
330
A02
100
AcDbEntity
  8
Shape067
100
AcDbLine
 10
75.4225
 20
-11.3695
 30
0
 11
75.0728
 21
-11.7579
 31
0
  0
LINE
  5
A9F
330
A02
100
AcDbEntity
  8
Shape068
100
AcDbLine
 10
75.0728
 20
-11.7579
 30
0
 11
74.65
 21
-12.0651
 31
0
  0
LINE
  5
AA0
330
A02
100
AcDbEntity
  8
Shape069
100
AcDbLine
 10
74.65
 20
-12.0651
 30
0
 11
74.1725
 21
-12.2776
 31
0
  0
LINE
  5
AA1
330
A02
100
AcDbEntity
  8
Shape070
100
AcDbLine
 10
74.1725
 20
-12.2776
 30
0
 11
73.6613
 21
-12.3863
 31
0
  0
LINE
  5
AA2
330
A02
100
AcDbEntity
  8
Shape071
100
AcDbLine
 10
73.6613
 20
-12.3863
 30
0
 11
73.1387
 21
-12.3863
 31
0
  0
LINE
  5
AA3
330
A02
100
AcDbEntity
  8
Shape072
100
AcDbLine
 10
-96.8613
 20
-12.3863
 30
0
 11
-97.3725
 21
-12.2776
 31
0
  0
LINE
  5
AA4
330
A02
100
AcDbEntity
  8
Shape073
100
AcDbLine
 10
-97.3725
 20
-12.2776
 30
0
 11
-97.85
 21
-12.0651
 31
0
  0
LINE
  5
AA5
330
A02
100
AcDbEntity
  8
Shape074
100
AcDbLine
 10
-97.85
 20
-12.0651
 30
0
 11
-98.2728
 21
-11.7579
 31
0
  0
LINE
  5
AA6
330
A02
100
AcDbEntity
  8
Shape075
100
AcDbLine
 10
-98.2728
 20
-11.7579
 30
0
 11
-98.6225
 21
-11.3695
 31
0
  0
LINE
  5
AA7
330
A02
100
AcDbEntity
  8
Shape076
100
AcDbLine
 10
-98.6225
 20
-11.3695
 30
0
 11
-98.8839
 21
-10.9168
 31
0
  0
LINE
  5
AA8
330
A02
100
AcDbEntity
  8
Shape077
100
AcDbLine
 10
-98.8839
 20
-10.9168
 30
0
 11
-99.0454
 21
-10.4198
 31
0
  0
LINE
  5
AA9
330
A02
100
AcDbEntity
  8
Shape078
100
AcDbLine
 10
-99.0454
 20
-10.4198
 30
0
 11
-99.1
 21
-9.89999
 31
0
  0
LINE
  5
AAA
330
A02
100
AcDbEntity
  8
Shape079
100
AcDbLine
 10
-99.1
 20
-9.89999
 30
0
 11
-99.0454
 21
-9.38022
 31
0
  0
LINE
  5
AAB
330
A02
100
AcDbEntity
  8
Shape080
100
AcDbLine
 10
-99.0454
 20
-9.38022
 30
0
 11
-98.8839
 21
-8.88315
 31
0
  0
LINE
  5
AAC
330
A02
100
AcDbEntity
  8
Shape081
100
AcDbLine
 10
-98.8839
 20
-8.88315
 30
0
 11
-98.6225
 21
-8.43053
 31
0
  0
LINE
  5
AAD
330
A02
100
AcDbEntity
  8
Shape082
100
AcDbLine
 10
-98.6225
 20
-8.43053
 30
0
 11
-98.2728
 21
-8.04213
 31
0
  0
LINE
  5
AAE
330
A02
100
AcDbEntity
  8
Shape083
100
AcDbLine
 10
-98.2728
 20
-8.04213
 30
0
 11
-97.85
 21
-7.73492
 31
0
  0
LINE
  5
AAF
330
A02
100
AcDbEntity
  8
Shape084
100
AcDbLine
 10
-97.85
 20
-7.73492
 30
0
 11
-97.3725
 21
-7.52235
 31
0
  0
LINE
  5
AB0
330
A02
100
AcDbEntity
  8
Shape085
100
AcDbLine
 10
-97.3725
 20
-7.52235
 30
0
 11
-96.8613
 21
-7.41368
 31
0
  0
LINE
  5
AB1
330
A02
100
AcDbEntity
  8
Shape086
100
AcDbLine
 10
-96.8613
 20
-7.41368
 30
0
 11
-96.3387
 21
-7.41368
 31
0
  0
LINE
  5
AB2
330
A02
100
AcDbEntity
  8
Shape087
100
AcDbLine
 10
-96.3387
 20
-7.41368
 30
0
 11
-95.8275
 21
-7.52235
 31
0
  0
LINE
  5
AB3
330
A02
100
AcDbEntity
  8
Shape088
100
AcDbLine
 10
-95.8275
 20
-7.52235
 30
0
 11
-95.35
 21
-7.73492
 31
0
  0
LINE
  5
AB4
330
A02
100
AcDbEntity
  8
Shape089
100
AcDbLine
 10
-95.35
 20
-7.73492
 30
0
 11
-94.9272
 21
-8.04213
 31
0
  0
LINE
  5
AB5
330
A02
100
AcDbEntity
  8
Shape090
100
AcDbLine
 10
-94.9272
 20
-8.04213
 30
0
 11
-94.5775
 21
-8.43053
 31
0
  0
LINE
  5
AB6
330
A02
100
AcDbEntity
  8
Shape091
100
AcDbLine
 10
-94.5775
 20
-8.43053
 30
0
 11
-94.3161
 21
-8.88315
 31
0
  0
LINE
  5
AB7
330
A02
100
AcDbEntity
  8
Shape092
100
AcDbLine
 10
-94.3161
 20
-8.88315
 30
0
 11
-94.1546
 21
-9.38022
 31
0
  0
LINE
  5
AB8
330
A02
100
AcDbEntity
  8
Shape093
100
AcDbLine
 10
-94.1546
 20
-9.38022
 30
0
 11
-94.1
 21
-9.89999
 31
0
  0
LINE
  5
AB9
330
A02
100
AcDbEntity
  8
Shape094
100
AcDbLine
 10
-94.1
 20
-9.89999
 30
0
 11
-94.1546
 21
-10.4198
 31
0
  0
LINE
  5
ABA
330
A02
100
AcDbEntity
  8
Shape095
100
AcDbLine
 10
-94.1546
 20
-10.4198
 30
0
 11
-94.3161
 21
-10.9168
 31
0
  0
LINE
  5
ABB
330
A02
100
AcDbEntity
  8
Shape096
100
AcDbLine
 10
-94.3161
 20
-10.9168
 30
0
 11
-94.5775
 21
-11.3695
 31
0
  0
LINE
  5
ABC
330
A02
100
AcDbEntity
  8
Shape098
100
AcDbLine
 10
-94.9272
 20
-11.7579
 30
0
 11
-95.35
 21
-12.0651
 31
0
  0
LINE
  5
ABD
330
A02
100
AcDbEntity
  8
Shape097
100
AcDbLine
 10
-94.5775
 20
-11.3695
 30
0
 11
-94.9272
 21
-11.7579
 31
0
  0
LINE
  5
ABE
330
A02
100
AcDbEntity
  8
Shape099
100
AcDbLine
 10
-95.35
 20
-12.0651
 30
0
 11
-95.8275
 21
-12.2776
 31
0
  0
LINE
  5
ABF
330
A02
100
AcDbEntity
  8
Shape100
100
AcDbLine
 10
-95.8275
 20
-12.2776
 30
0
 11
-96.3387
 21
-12.3863
 31
0
  0
LINE
  5
AC0
330
A02
100
AcDbEntity
  8
Shape101
100
AcDbLine
 10
-96.3387
 20
-12.3863
 30
0
 11
-96.8613
 21
-12.3863
 31
0
  0
LINE
  5
AC1
330
A02
100
AcDbEntity
  8
Shape102
100
AcDbLine
 10
-73.6613
 20
-12.3863
 30
0
 11
-74.1725
 21
-12.2776
 31
0
  0
LINE
  5
AC2
330
A02
100
AcDbEntity
  8
Shape103
100
AcDbLine
 10
-74.1725
 20
-12.2776
 30
0
 11
-74.65
 21
-12.0651
 31
0
  0
LINE
  5
AC3
330
A02
100
AcDbEntity
  8
Shape104
100
AcDbLine
 10
-74.65
 20
-12.0651
 30
0
 11
-75.0728
 21
-11.7579
 31
0
  0
LINE
  5
AC4
330
A02
100
AcDbEntity
  8
Shape105
100
AcDbLine
 10
-75.0728
 20
-11.7579
 30
0
 11
-75.4225
 21
-11.3695
 31
0
  0
LINE
  5
AC5
330
A02
100
AcDbEntity
  8
Shape106
100
AcDbLine
 10
-75.4225
 20
-11.3695
 30
0
 11
-75.6839
 21
-10.9168
 31
0
  0
LINE
  5
AC6
330
A02
100
AcDbEntity
  8
Shape107
100
AcDbLine
 10
-75.6839
 20
-10.9168
 30
0
 11
-75.8454
 21
-10.4198
 31
0
  0
LINE
  5
AC7
330
A02
100
AcDbEntity
  8
Shape108
100
AcDbLine
 10
-75.8454
 20
-10.4198
 30
0
 11
-75.9
 21
-9.89999
 31
0
  0
LINE
  5
AC8
330
A02
100
AcDbEntity
  8
Shape109
100
AcDbLine
 10
-75.9
 20
-9.89999
 30
0
 11
-75.8454
 21
-9.38022
 31
0
  0
LINE
  5
AC9
330
A02
100
AcDbEntity
  8
Shape110
100
AcDbLine
 10
-75.8454
 20
-9.38022
 30
0
 11
-75.6839
 21
-8.88315
 31
0
  0
LINE
  5
ACA
330
A02
100
AcDbEntity
  8
Shape111
100
AcDbLine
 10
-75.6839
 20
-8.88315
 30
0
 11
-75.4225
 21
-8.43053
 31
0
  0
LINE
  5
ACB
330
A02
100
AcDbEntity
  8
Shape112
100
AcDbLine
 10
-75.4225
 20
-8.43053
 30
0
 11
-75.0728
 21
-8.04213
 31
0
  0
LINE
  5
ACC
330
A02
100
AcDbEntity
  8
Shape113
100
AcDbLine
 10
-75.0728
 20
-8.04213
 30
0
 11
-74.65
 21
-7.73492
 31
0
  0
LINE
  5
ACD
330
A02
100
AcDbEntity
  8
Shape114
100
AcDbLine
 10
-74.65
 20
-7.73492
 30
0
 11
-74.1725
 21
-7.52235
 31
0
  0
LINE
  5
ACE
330
A02
100
AcDbEntity
  8
Shape115
100
AcDbLine
 10
-74.1725
 20
-7.52235
 30
0
 11
-73.6613
 21
-7.41368
 31
0
  0
LINE
  5
ACF
330
A02
100
AcDbEntity
  8
Shape116
100
AcDbLine
 10
-73.6613
 20
-7.41368
 30
0
 11
-73.1387
 21
-7.41368
 31
0
  0
LINE
  5
AD0
330
A02
100
AcDbEntity
  8
Shape117
100
AcDbLine
 10
-73.1387
 20
-7.41368
 30
0
 11
-72.6275
 21
-7.52235
 31
0
  0
LINE
  5
AD1
330
A02
100
AcDbEntity
  8
Shape118
100
AcDbLine
 10
-72.6275
 20
-7.52235
 30
0
 11
-72.15
 21
-7.73492
 31
0
  0
LINE
  5
AD2
330
A02
100
AcDbEntity
  8
Shape119
100
AcDbLine
 10
-72.15
 20
-7.73492
 30
0
 11
-71.7272
 21
-8.04213
 31
0
  0
LINE
  5
AD3
330
A02
100
AcDbEntity
  8
Shape120
100
AcDbLine
 10
-71.7272
 20
-8.04213
 30
0
 11
-71.3775
 21
-8.43053
 31
0
  0
LINE
  5
AD4
330
A02
100
AcDbEntity
  8
Shape121
100
AcDbLine
 10
-71.3775
 20
-8.43053
 30
0
 11
-71.1161
 21
-8.88315
 31
0
  0
LINE
  5
AD5
330
A02
100
AcDbEntity
  8
Shape122
100
AcDbLine
 10
-71.1161
 20
-8.88315
 30
0
 11
-70.9546
 21
-9.38022
 31
0
  0
LINE
  5
AD6
330
A02
100
AcDbEntity
  8
Shape123
100
AcDbLine
 10
-70.9546
 20
-9.38022
 30
0
 11
-70.9
 21
-9.89999
 31
0
  0
LINE
  5
AD7
330
A02
100
AcDbEntity
  8
Shape124
100
AcDbLine
 10
-70.9
 20
-9.89999
 30
0
 11
-70.9546
 21
-10.4198
 31
0
  0
LINE
  5
AD8
330
A02
100
AcDbEntity
  8
Shape125
100
AcDbLine
 10
-70.9546
 20
-10.4198
 30
0
 11
-71.1161
 21
-10.9168
 31
0
  0
LINE
  5
AD9
330
A02
100
AcDbEntity
  8
Shape126
100
AcDbLine
 10
-71.1161
 20
-10.9168
 30
0
 11
-71.3775
 21
-11.3695
 31
0
  0
LINE
  5
ADA
330
A02
100
AcDbEntity
  8
Shape127
100
AcDbLine
 10
-71.3775
 20
-11.3695
 30
0
 11
-71.7272
 21
-11.7579
 31
0
  0
LINE
  5
ADB
330
A02
100
AcDbEntity
  8
Shape128
100
AcDbLine
 10
-71.7272
 20
-11.7579
 30
0
 11
-72.15
 21
-12.0651
 31
0
  0
LINE
  5
ADC
330
A02
100
AcDbEntity
  8
Shape129
100
AcDbLine
 10
-72.15
 20
-12.0651
 30
0
 11
-72.6275
 21
-12.2776
 31
0
  0
LINE
  5
ADD
330
A02
100
AcDbEntity
  8
Shape130
100
AcDbLine
 10
-72.6275
 20
-12.2776
 30
0
 11
-73.1387
 21
-12.3863
 31
0
  0
LINE
  5
ADE
330
A02
100
AcDbEntity
  8
Shape131
100
AcDbLine
 10
-73.1387
 20
-12.3863
 30
0
 11
-73.6613
 21
-12.3863
 31
0
  0
LINE
  5
ADF
330
A02
100
AcDbEntity
  8
Shape282
100
AcDbLine
 10
-96.8613
 20
-35.5863
 30
0
 11
-97.3725
 21
-35.4776
 31
0
  0
LINE
  5
AE0
330
A02
100
AcDbEntity
  8
Shape284
100
AcDbLine
 10
-97.85
 20
-35.2651
 30
0
 11
-98.2728
 21
-34.9579
 31
0
  0
LINE
  5
AE1
330
A02
100
AcDbEntity
  8
Shape283
100
AcDbLine
 10
-97.3725
 20
-35.4776
 30
0
 11
-97.85
 21
-35.2651
 31
0
  0
LINE
  5
AE2
330
A02
100
AcDbEntity
  8
Shape288
100
AcDbLine
 10
-99.0454
 20
-33.6198
 30
0
 11
-99.1
 21
-33.1
 31
0
  0
LINE
  5
AE3
330
A02
100
AcDbEntity
  8
Shape291
100
AcDbLine
 10
-98.8839
 20
-32.0831
 30
0
 11
-98.6225
 21
-31.6305
 31
0
  0
LINE
  5
AE4
330
A02
100
AcDbEntity
  8
Shape289
100
AcDbLine
 10
-99.1
 20
-33.1
 30
0
 11
-99.0454
 21
-32.5802
 31
0
  0
LINE
  5
AE5
330
A02
100
AcDbEntity
  8
Shape290
100
AcDbLine
 10
-99.0454
 20
-32.5802
 30
0
 11
-98.8839
 21
-32.0831
 31
0
  0
LINE
  5
AE6
330
A02
100
AcDbEntity
  8
Shape303
100
AcDbLine
 10
-94.1546
 20
-32.5802
 30
0
 11
-94.1
 21
-33.1
 31
0
  0
LINE
  5
AE7
330
A02
100
AcDbEntity
  8
Shape305
100
AcDbLine
 10
-94.1546
 20
-33.6198
 30
0
 11
-94.3161
 21
-34.1168
 31
0
  0
LINE
  5
AE8
330
A02
100
AcDbEntity
  8
Shape304
100
AcDbLine
 10
-94.1
 20
-33.1
 30
0
 11
-94.1546
 21
-33.6198
 31
0
  0
LINE
  5
AE9
330
A02
100
AcDbEntity
  8
Shape316
100
AcDbLine
 10
-75.4225
 20
-34.5695
 30
0
 11
-75.6839
 21
-34.1168
 31
0
  0
LINE
  5
AEA
330
A02
100
AcDbEntity
  8
Shape306
100
AcDbLine
 10
-94.3161
 20
-34.1168
 30
0
 11
-94.5775
 21
-34.5695
 31
0
  0
LINE
  5
AEB
330
A02
100
AcDbEntity
  8
Shape315
100
AcDbLine
 10
-75.0728
 20
-34.9579
 30
0
 11
-75.4225
 21
-34.5695
 31
0
  0
LINE
  5
AEC
330
A02
100
AcDbEntity
  8
Shape317
100
AcDbLine
 10
-75.6839
 20
-34.1168
 30
0
 11
-75.8454
 21
-33.6198
 31
0
  0
LINE
  5
AED
330
A02
100
AcDbEntity
  8
Shape369
100
AcDbLine
 10
74.65
 20
-35.2651
 30
0
 11
74.1725
 21
-35.4776
 31
0
  0
LINE
  5
AEE
330
A02
100
AcDbEntity
  8
Shape367
100
AcDbLine
 10
75.4225
 20
-34.5695
 30
0
 11
75.0728
 21
-34.9579
 31
0
  0
LINE
  5
AEF
330
A02
100
AcDbEntity
  8
Shape368
100
AcDbLine
 10
75.0728
 20
-34.9579
 30
0
 11
74.65
 21
-35.2651
 31
0
  0
LINE
  5
AF0
330
A02
100
AcDbEntity
  8
Shape372
100
AcDbLine
 10
96.3387
 20
-35.5863
 30
0
 11
95.8275
 21
-35.4776
 31
0
  0
LINE
  5
AF1
330
A02
100
AcDbEntity
  8
Shape370
100
AcDbLine
 10
74.1725
 20
-35.4776
 30
0
 11
73.6613
 21
-35.5863
 31
0
  0
LINE
  5
AF2
330
A02
100
AcDbEntity
  8
Shape371
100
AcDbLine
 10
73.6613
 20
-35.5863
 30
0
 11
73.1387
 21
-35.5863
 31
0
  0
LINE
  5
AF3
330
A02
100
AcDbEntity
  8
Shape401
100
AcDbLine
 10
96.8613
 20
-35.5863
 30
0
 11
96.3387
 21
-35.5863
 31
0
  0
LINE
  5
AF4
330
A02
100
AcDbEntity
  8
Shape399
100
AcDbLine
 10
97.85
 20
-35.2651
 30
0
 11
97.3725
 21
-35.4776
 31
0
  0
LINE
  5
AF5
330
A02
100
AcDbEntity
  8
Shape392
100
AcDbLine
 10
98.8839
 20
-32.0831
 30
0
 11
99.0454
 21
-32.5802
 31
0
  0
LINE
  5
AF6
330
A02
100
AcDbEntity
  8
Shape394
100
AcDbLine
 10
99.1
 20
-33.1
 30
0
 11
99.0454
 21
-33.6198
 31
0
  0
LINE
  5
AF7
330
A02
100
AcDbEntity
  8
Shape393
100
AcDbLine
 10
99.0454
 20
-32.5802
 30
0
 11
99.1
 21
-33.1
 31
0
  0
ENDSEC
  0
SECTION
  2
OBJECTS
  0
DICTIONARY
  5
F000
330
0
100
AcDbDictionary
  3
ACAD_GROUP
350
F001
  0
DICTIONARY
  5
F001
330
F000
100
AcDbDictionary
  0
ENDSEC
  0
EOF