<?xml version="1.0" encoding="UTF-8" standalone="no"?>
<!DOCTYPE svg PUBLIC "-//W3C//DTD SVG 1.1//EN" "http://www.w3.org/Graphics/SVG/1.1/DTD/svg11.dtd">
<svg width="100%" height="100%" viewBox="0 0 640 201" version="1.1" xmlns="http://www.w3.org/2000/svg" xmlns:xlink="http://www.w3.org/1999/xlink" xml:space="preserve" xmlns:serif="http://www.serif.com/" style="fill-rule:evenodd;clip-rule:evenodd;stroke-linecap:round;stroke-linejoin:round;stroke-miterlimit:2;">
    <g id="_0" serif:id="0" transform="matrix(1,0,0,1,319.996,29.4449)">
        <path id="LINE" d="M273.086,35.111L271.637,34.803" style="fill:none;stroke:black;stroke-width:0.71px;"/>
        <path id="LINE1" serif:id="LINE" d="M271.637,34.803L270.283,34.2" style="fill:none;stroke:black;stroke-width:0.71px;"/>
        <path id="LINE2" serif:id="LINE" d="M270.283,34.2L269.085,33.329" style="fill:none;stroke:black;stroke-width:0.71px;"/>
        <path id="LINE3" serif:id="LINE" d="M269.085,33.329L268.094,32.229" style="fill:none;stroke:black;stroke-width:0.71px;"/>
        <path id="LINE4" serif:id="LINE" d="M268.094,32.229L267.353,30.945" style="fill:none;stroke:black;stroke-width:0.71px;"/>
        <path id="LINE5" serif:id="LINE" d="M267.353,30.945L266.895,29.536" style="fill:none;stroke:black;stroke-width:0.71px;"/>
        <path id="LINE6" serif:id="LINE" d="M266.895,29.536L266.74,28.063" style="fill:none;stroke:black;stroke-width:0.71px;"/>
        <path id="LINE7" serif:id="LINE" d="M266.74,28.063L266.895,26.59" style="fill:none;stroke:black;stroke-width:0.71px;"/>
        <path id="LINE8" serif:id="LINE" d="M266.895,26.59L267.353,25.181" style="fill:none;stroke:black;stroke-width:0.71px;"/>
        <path id="LINE9" serif:id="LINE" d="M267.353,25.181L268.094,23.898" style="fill:none;stroke:black;stroke-width:0.71px;"/>
        <path id="LINE10" serif:id="LINE" d="M268.094,23.898L269.085,22.797" style="fill:none;stroke:black;stroke-width:0.71px;"/>
        <path id="LINE11" serif:id="LINE" d="M269.085,22.797L270.283,21.926" style="fill:none;stroke:black;stroke-width:0.71px;"/>
        <path id="LINE12" serif:id="LINE" d="M270.283,21.926L271.637,21.323" style="fill:none;stroke:black;stroke-width:0.71px;"/>
        <path id="LINE13" serif:id="LINE" d="M271.637,21.323L273.086,21.015" style="fill:none;stroke:black;stroke-width:0.71px;"/>
        <path id="LINE14" serif:id="LINE" d="M273.086,21.015L274.567,21.015" style="fill:none;stroke:black;stroke-width:0.71px;"/>
        <path id="LINE15" serif:id="LINE" d="M274.567,21.015L276.017,21.323" style="fill:none;stroke:black;stroke-width:0.71px;"/>
        <path id="LINE16" serif:id="LINE" d="M276.017,21.323L277.37,21.926" style="fill:none;stroke:black;stroke-width:0.71px;"/>
        <path id="LINE17" serif:id="LINE" d="M277.37,21.926L278.569,22.797" style="fill:none;stroke:black;stroke-width:0.71px;"/>
        <path id="LINE18" serif:id="LINE" d="M278.569,22.797L279.56,23.898" style="fill:none;stroke:black;stroke-width:0.71px;"/>
        <path id="LINE19" serif:id="LINE" d="M279.56,23.898L280.301,25.181" style="fill:none;stroke:black;stroke-width:0.71px;"/>
        <path id="LINE20" serif:id="LINE" d="M280.301,25.181L280.759,26.59" style="fill:none;stroke:black;stroke-width:0.71px;"/>
        <path id="LINE21" serif:id="LINE" d="M280.759,26.59L280.913,28.063" style="fill:none;stroke:black;stroke-width:0.71px;"/>
        <path id="LINE22" serif:id="LINE" d="M280.913,28.063L280.759,29.536" style="fill:none;stroke:black;stroke-width:0.71px;"/>
        <path id="LINE23" serif:id="LINE" d="M280.759,29.536L280.301,30.945" style="fill:none;stroke:black;stroke-width:0.71px;"/>
        <path id="LINE24" serif:id="LINE" d="M280.301,30.945L279.56,32.229" style="fill:none;stroke:black;stroke-width:0.71px;"/>
        <path id="LINE25" serif:id="LINE" d="M279.56,32.229L278.569,33.329" style="fill:none;stroke:black;stroke-width:0.71px;"/>
        <path id="LINE26" serif:id="LINE" d="M278.569,33.329L277.37,34.2" style="fill:none;stroke:black;stroke-width:0.71px;"/>
        <path id="LINE27" serif:id="LINE" d="M277.37,34.2L276.017,34.803" style="fill:none;stroke:black;stroke-width:0.71px;"/>
        <path id="LINE28" serif:id="LINE" d="M276.017,34.803L274.567,35.111" style="fill:none;stroke:black;stroke-width:0.71px;"/>
        <path id="LINE29" serif:id="LINE" d="M274.567,35.111L273.086,35.111" style="fill:none;stroke:black;stroke-width:0.71px;"/>
        <path id="LINE30" serif:id="LINE" d="M207.322,35.111L205.873,34.803" style="fill:none;stroke:black;stroke-width:0.71px;"/>
        <path id="LINE31" serif:id="LINE" d="M205.873,34.803L204.52,34.2" style="fill:none;stroke:black;stroke-width:0.71px;"/>
        <path id="LINE32" serif:id="LINE" d="M204.52,34.2L203.321,33.329" style="fill:none;stroke:black;stroke-width:0.71px;"/>
        <path id="LINE33" serif:id="LINE" d="M203.321,33.329L202.33,32.229" style="fill:none;stroke:black;stroke-width:0.71px;"/>
        <path id="LINE34" serif:id="LINE" d="M202.33,32.229L201.589,30.945" style="fill:none;stroke:black;stroke-width:0.71px;"/>
        <path id="LINE35" serif:id="LINE" d="M201.589,30.945L201.131,29.536" style="fill:none;stroke:black;stroke-width:0.71px;"/>
        <path id="LINE36" serif:id="LINE" d="M201.131,29.536L200.976,28.063" style="fill:none;stroke:black;stroke-width:0.71px;"/>
        <path id="LINE37" serif:id="LINE" d="M200.976,28.063L201.131,26.59" style="fill:none;stroke:black;stroke-width:0.71px;"/>
        <path id="LINE38" serif:id="LINE" d="M201.131,26.59L201.589,25.181" style="fill:none;stroke:black;stroke-width:0.71px;"/>
        <path id="LINE39" serif:id="LINE" d="M201.589,25.181L202.33,23.898" style="fill:none;stroke:black;stroke-width:0.71px;"/>
        <path id="LINE40" serif:id="LINE" d="M202.33,23.898L203.321,22.797" style="fill:none;stroke:black;stroke-width:0.71px;"/>
        <path id="LINE41" serif:id="LINE" d="M203.321,22.797L204.52,21.926" style="fill:none;stroke:black;stroke-width:0.71px;"/>
        <path id="LINE42" serif:id="LINE" d="M204.52,21.926L205.873,21.323" style="fill:none;stroke:black;stroke-width:0.71px;"/>
        <path id="LINE43" serif:id="LINE" d="M205.873,21.323L207.322,21.015" style="fill:none;stroke:black;stroke-width:0.71px;"/>
        <path id="LINE44" serif:id="LINE" d="M207.322,21.015L208.804,21.015" style="fill:none;stroke:black;stroke-width:0.71px;"/>
        <path id="LINE45" serif:id="LINE" d="M208.804,21.015L210.253,21.323" style="fill:none;stroke:black;stroke-width:0.71px;"/>
        <path id="LINE46" serif:id="LINE" d="M210.253,21.323L211.606,21.926" style="fill:none;stroke:black;stroke-width:0.71px;"/>
        <path id="LINE47" serif:id="LINE" d="M211.606,21.926L212.805,22.797" style="fill:none;stroke:black;stroke-width:0.71px;"/>
        <path id="LINE48" serif:id="LINE" d="M212.805,22.797L213.796,23.898" style="fill:none;stroke:black;stroke-width:0.71px;"/>
        <path id="LINE49" serif:id="LINE" d="M213.796,23.898L214.537,25.181" style="fill:none;stroke:black;stroke-width:0.71px;"/>
        <path id="LINE50" serif:id="LINE" d="M214.537,25.181L214.995,26.59" style="fill:none;stroke:black;stroke-width:0.71px;"/>
        <path id="LINE51" serif:id="LINE" d="M214.995,26.59L215.15,28.063" style="fill:none;stroke:black;stroke-width:0.71px;"/>
        <path id="LINE52" serif:id="LINE" d="M215.15,28.063L214.995,29.536" style="fill:none;stroke:black;stroke-width:0.71px;"/>
        <path id="LINE53" serif:id="LINE" d="M214.995,29.536L214.537,30.945" style="fill:none;stroke:black;stroke-width:0.71px;"/>
        <path id="LINE54" serif:id="LINE" d="M214.537,30.945L213.796,32.229" style="fill:none;stroke:black;stroke-width:0.71px;"/>
        <path id="LINE55" serif:id="LINE" d="M213.796,32.229L212.805,33.329" style="fill:none;stroke:black;stroke-width:0.71px;"/>
        <path id="LINE56" serif:id="LINE" d="M212.805,33.329L211.606,34.2" style="fill:none;stroke:black;stroke-width:0.71px;"/>
        <path id="LINE57" serif:id="LINE" d="M211.606,34.2L210.253,34.803" style="fill:none;stroke:black;stroke-width:0.71px;"/>
        <path id="LINE58" serif:id="LINE" d="M210.253,34.803L208.804,35.111" style="fill:none;stroke:black;stroke-width:0.71px;"/>
        <path id="LINE59" serif:id="LINE" d="M208.804,35.111L207.322,35.111" style="fill:none;stroke:black;stroke-width:0.71px;"/>
        <path id="LINE60" serif:id="LINE" d="M-274.567,35.111L-276.017,34.803" style="fill:none;stroke:black;stroke-width:0.71px;"/>
        <path id="LINE61" serif:id="LINE" d="M-276.017,34.803L-277.37,34.2" style="fill:none;stroke:black;stroke-width:0.71px;"/>
        <path id="LINE62" serif:id="LINE" d="M-277.37,34.2L-278.569,33.329" style="fill:none;stroke:black;stroke-width:0.71px;"/>
        <path id="LINE63" serif:id="LINE" d="M-278.569,33.329L-279.56,32.229" style="fill:none;stroke:black;stroke-width:0.71px;"/>
        <path id="LINE64" serif:id="LINE" d="M-279.56,32.229L-280.301,30.945" style="fill:none;stroke:black;stroke-width:0.71px;"/>
        <path id="LINE65" serif:id="LINE" d="M-280.301,30.945L-280.759,29.536" style="fill:none;stroke:black;stroke-width:0.71px;"/>
        <path id="LINE66" serif:id="LINE" d="M-280.759,29.536L-280.913,28.063" style="fill:none;stroke:black;stroke-width:0.71px;"/>
        <path id="LINE67" serif:id="LINE" d="M-280.913,28.063L-280.759,26.59" style="fill:none;stroke:black;stroke-width:0.71px;"/>
        <path id="LINE68" serif:id="LINE" d="M-280.759,26.59L-280.301,25.181" style="fill:none;stroke:black;stroke-width:0.71px;"/>
        <path id="LINE69" serif:id="LINE" d="M-280.301,25.181L-279.56,23.898" style="fill:none;stroke:black;stroke-width:0.71px;"/>
        <path id="LINE70" serif:id="LINE" d="M-279.56,23.898L-278.569,22.797" style="fill:none;stroke:black;stroke-width:0.71px;"/>
        <path id="LINE71" serif:id="LINE" d="M-278.569,22.797L-277.37,21.926" style="fill:none;stroke:black;stroke-width:0.71px;"/>
        <path id="LINE72" serif:id="LINE" d="M-277.37,21.926L-276.017,21.323" style="fill:none;stroke:black;stroke-width:0.71px;"/>
        <path id="LINE73" serif:id="LINE" d="M-276.017,21.323L-274.567,21.015" style="fill:none;stroke:black;stroke-width:0.71px;"/>
        <path id="LINE74" serif:id="LINE" d="M-274.567,21.015L-273.086,21.015" style="fill:none;stroke:black;stroke-width:0.71px;"/>
        <path id="LINE75" serif:id="LINE" d="M-273.086,21.015L-271.637,21.323" style="fill:none;stroke:black;stroke-width:0.71px;"/>
        <path id="LINE76" serif:id="LINE" d="M-271.637,21.323L-270.283,21.926" style="fill:none;stroke:black;stroke-width:0.71px;"/>
        <path id="LINE77" serif:id="LINE" d="M-270.283,21.926L-269.085,22.797" style="fill:none;stroke:black;stroke-width:0.71px;"/>
        <path id="LINE78" serif:id="LINE" d="M-269.085,22.797L-268.094,23.898" style="fill:none;stroke:black;stroke-width:0.71px;"/>
        <path id="LINE79" serif:id="LINE" d="M-268.094,23.898L-267.353,25.181" style="fill:none;stroke:black;stroke-width:0.71px;"/>
        <path id="LINE80" serif:id="LINE" d="M-267.353,25.181L-266.895,26.59" style="fill:none;stroke:black;stroke-width:0.71px;"/>
        <path id="LINE81" serif:id="LINE" d="M-266.895,26.59L-266.74,28.063" style="fill:none;stroke:black;stroke-width:0.71px;"/>
        <path id="LINE82" serif:id="LINE" d="M-266.74,28.063L-266.895,29.536" style="fill:none;stroke:black;stroke-width:0.71px;"/>
        <path id="LINE83" serif:id="LINE" d="M-266.895,29.536L-267.353,30.945" style="fill:none;stroke:black;stroke-width:0.71px;"/>
        <path id="LINE84" serif:id="LINE" d="M-267.353,30.945L-268.094,32.229" style="fill:none;stroke:black;stroke-width:0.71px;"/>
        <path id="LINE85" serif:id="LINE" d="M-268.094,32.229L-269.085,33.329" style="fill:none;stroke:black;stroke-width:0.71px;"/>
        <path id="LINE86" serif:id="LINE" d="M-269.085,33.329L-270.283,34.2" style="fill:none;stroke:black;stroke-width:0.71px;"/>
        <path id="LINE87" serif:id="LINE" d="M-270.283,34.2L-271.637,34.803" style="fill:none;stroke:black;stroke-width:0.71px;"/>
        <path id="LINE88" serif:id="LINE" d="M-271.637,34.803L-273.086,35.111" style="fill:none;stroke:black;stroke-width:0.71px;"/>
        <path id="LINE89" serif:id="LINE" d="M-273.086,35.111L-274.567,35.111" style="fill:none;stroke:black;stroke-width:0.71px;"/>
        <path id="LINE90" serif:id="LINE" d="M-208.804,35.111L-210.253,34.803" style="fill:none;stroke:black;stroke-width:0.71px;"/>
        <path id="LINE91" serif:id="LINE" d="M-210.253,34.803L-211.606,34.2" style="fill:none;stroke:black;stroke-width:0.71px;"/>
        <path id="LINE92" serif:id="LINE" d="M-211.606,34.2L-212.805,33.329" style="fill:none;stroke:black;stroke-width:0.71px;"/>
        <path id="LINE93" serif:id="LINE" d="M-212.805,33.329L-213.796,32.229" style="fill:none;stroke:black;stroke-width:0.71px;"/>
        <path id="LINE94" serif:id="LINE" d="M-213.796,32.229L-214.537,30.945" style="fill:none;stroke:black;stroke-width:0.71px;"/>
        <path id="LINE95" serif:id="LINE" d="M-214.537,30.945L-214.995,29.536" style="fill:none;stroke:black;stroke-width:0.71px;"/>
        <path id="LINE96" serif:id="LINE" d="M-214.995,29.536L-215.15,28.063" style="fill:none;stroke:black;stroke-width:0.71px;"/>
        <path id="LINE97" serif:id="LINE" d="M-215.15,28.063L-214.995,26.59" style="fill:none;stroke:black;stroke-width:0.71px;"/>
        <path id="LINE98" serif:id="LINE" d="M-214.995,26.59L-214.537,25.181" style="fill:none;stroke:black;stroke-width:0.71px;"/>
        <path id="LINE99" serif:id="LINE" d="M-214.537,25.181L-213.796,23.898" style="fill:none;stroke:black;stroke-width:0.71px;"/>
        <path id="LINE100" serif:id="LINE" d="M-213.796,23.898L-212.805,22.797" style="fill:none;stroke:black;stroke-width:0.71px;"/>
        <path id="LINE101" serif:id="LINE" d="M-212.805,22.797L-211.606,21.926" style="fill:none;stroke:black;stroke-width:0.71px;"/>
        <path id="LINE102" serif:id="LINE" d="M-211.606,21.926L-210.253,21.323" style="fill:none;stroke:black;stroke-width:0.71px;"/>
        <path id="LINE103" serif:id="LINE" d="M-210.253,21.323L-208.804,21.015" style="fill:none;stroke:black;stroke-width:0.71px;"/>
        <path id="LINE104" serif:id="LINE" d="M-208.804,21.015L-207.322,21.015" style="fill:none;stroke:black;stroke-width:0.71px;"/>
        <path id="LINE105" serif:id="LINE" d="M-207.322,21.015L-205.873,21.323" style="fill:none;stroke:black;stroke-width:0.71px;"/>
        <path id="LINE106" serif:id="LINE" d="M-205.873,21.323L-204.52,21.926" style="fill:none;stroke:black;stroke-width:0.71px;"/>
        <path id="LINE107" serif:id="LINE" d="M-204.52,21.926L-203.321,22.797" style="fill:none;stroke:black;stroke-width:0.71px;"/>
        <path id="LINE108" serif:id="LINE" d="M-203.321,22.797L-202.33,23.898" style="fill:none;stroke:black;stroke-width:0.71px;"/>
        <path id="LINE109" serif:id="LINE" d="M-202.33,23.898L-201.589,25.181" style="fill:none;stroke:black;stroke-width:0.71px;"/>
        <path id="LINE110" serif:id="LINE" d="M-201.589,25.181L-201.131,26.59" style="fill:none;stroke:black;stroke-width:0.71px;"/>
        <path id="LINE111" serif:id="LINE" d="M-201.131,26.59L-200.976,28.063" style="fill:none;stroke:black;stroke-width:0.71px;"/>
        <path id="LINE112" serif:id="LINE" d="M-200.976,28.063L-201.131,29.536" style="fill:none;stroke:black;stroke-width:0.71px;"/>
        <path id="LINE113" serif:id="LINE" d="M-201.131,29.536L-201.589,30.945" style="fill:none;stroke:black;stroke-width:0.71px;"/>
        <path id="LINE114" serif:id="LINE" d="M-201.589,30.945L-202.33,32.229" style="fill:none;stroke:black;stroke-width:0.71px;"/>
        <path id="LINE115" serif:id="LINE" d="M-202.33,32.229L-203.321,33.329" style="fill:none;stroke:black;stroke-width:0.71px;"/>
        <path id="LINE116" serif:id="LINE" d="M-203.321,33.329L-204.52,34.2" style="fill:none;stroke:black;stroke-width:0.71px;"/>
        <path id="LINE117" serif:id="LINE" d="M-204.52,34.2L-205.873,34.803" style="fill:none;stroke:black;stroke-width:0.71px;"/>
        <path id="LINE118" serif:id="LINE" d="M-205.873,34.803L-207.322,35.111" style="fill:none;stroke:black;stroke-width:0.71px;"/>
        <path id="LINE119" serif:id="LINE" d="M-207.322,35.111L-208.804,35.111" style="fill:none;stroke:black;stroke-width:0.71px;"/>
        <path id="LINE120" serif:id="LINE" d="M-274.567,100.875L-276.017,100.566" style="fill:none;stroke:black;stroke-width:0.71px;"/>
        <path id="LINE121" serif:id="LINE" d="M-276.017,100.566L-277.37,99.964" style="fill:none;stroke:black;stroke-width:0.71px;"/>
        <path id="LINE122" serif:id="LINE" d="M-277.37,99.964L-278.569,99.093" style="fill:none;stroke:black;stroke-width:0.71px;"/>
        <path id="LINE123" serif:id="LINE" d="M-278.569,99.093L-279.56,97.992" style="fill:none;stroke:black;stroke-width:0.71px;"/>
        <path id="LINE124" serif:id="LINE" d="M-279.56,97.992L-280.301,96.709" style="fill:none;stroke:black;stroke-width:0.71px;"/>
        <path id="LINE125" serif:id="LINE" d="M-280.301,96.709L-280.759,95.3" style="fill:none;stroke:black;stroke-width:0.71px;"/>
        <path id="LINE126" serif:id="LINE" d="M-280.759,95.3L-280.913,93.827" style="fill:none;stroke:black;stroke-width:0.71px;"/>
        <path id="LINE127" serif:id="LINE" d="M-280.913,93.827L-280.759,92.353" style="fill:none;stroke:black;stroke-width:0.71px;"/>
        <path id="LINE128" serif:id="LINE" d="M-280.759,92.353L-280.301,90.944" style="fill:none;stroke:black;stroke-width:0.71px;"/>
        <path id="LINE129" serif:id="LINE" d="M-280.301,90.944L-279.56,89.661" style="fill:none;stroke:black;stroke-width:0.71px;"/>
        <path id="LINE130" serif:id="LINE" d="M-279.56,89.661L-278.569,88.56" style="fill:none;stroke:black;stroke-width:0.71px;"/>
        <path id="LINE131" serif:id="LINE" d="M-278.569,88.56L-277.37,87.689" style="fill:none;stroke:black;stroke-width:0.71px;"/>
        <path id="LINE132" serif:id="LINE" d="M-277.37,87.689L-276.017,87.087" style="fill:none;stroke:black;stroke-width:0.71px;"/>
        <path id="LINE133" serif:id="LINE" d="M-276.017,87.087L-274.567,86.779" style="fill:none;stroke:black;stroke-width:0.71px;"/>
        <path id="LINE134" serif:id="LINE" d="M-274.567,86.779L-273.086,86.779" style="fill:none;stroke:black;stroke-width:0.71px;"/>
        <path id="LINE135" serif:id="LINE" d="M-273.086,86.779L-271.637,87.087" style="fill:none;stroke:black;stroke-width:0.71px;"/>
        <path id="LINE136" serif:id="LINE" d="M-271.637,87.087L-270.283,87.689" style="fill:none;stroke:black;stroke-width:0.71px;"/>
        <path id="LINE137" serif:id="LINE" d="M-270.283,87.689L-269.085,88.56" style="fill:none;stroke:black;stroke-width:0.71px;"/>
        <path id="LINE138" serif:id="LINE" d="M-269.085,88.56L-268.094,89.661" style="fill:none;stroke:black;stroke-width:0.71px;"/>
        <path id="LINE139" serif:id="LINE" d="M-268.094,89.661L-267.353,90.944" style="fill:none;stroke:black;stroke-width:0.71px;"/>
        <path id="LINE140" serif:id="LINE" d="M-267.353,90.944L-266.895,92.353" style="fill:none;stroke:black;stroke-width:0.71px;"/>
        <path id="LINE141" serif:id="LINE" d="M-266.895,92.353L-266.74,93.827" style="fill:none;stroke:black;stroke-width:0.71px;"/>
        <path id="LINE142" serif:id="LINE" d="M-266.74,93.827L-266.895,95.3" style="fill:none;stroke:black;stroke-width:0.71px;"/>
        <path id="LINE143" serif:id="LINE" d="M-266.895,95.3L-267.353,96.709" style="fill:none;stroke:black;stroke-width:0.71px;"/>
        <path id="LINE144" serif:id="LINE" d="M-267.353,96.709L-268.094,97.992" style="fill:none;stroke:black;stroke-width:0.71px;"/>
        <path id="LINE145" serif:id="LINE" d="M-268.094,97.992L-269.085,99.093" style="fill:none;stroke:black;stroke-width:0.71px;"/>
        <path id="LINE146" serif:id="LINE" d="M-269.085,99.093L-270.283,99.964" style="fill:none;stroke:black;stroke-width:0.71px;"/>
        <path id="LINE147" serif:id="LINE" d="M-270.283,99.964L-271.637,100.566" style="fill:none;stroke:black;stroke-width:0.71px;"/>
        <path id="LINE148" serif:id="LINE" d="M-271.637,100.566L-273.086,100.875" style="fill:none;stroke:black;stroke-width:0.71px;"/>
        <path id="LINE149" serif:id="LINE" d="M-273.086,100.875L-274.567,100.875" style="fill:none;stroke:black;stroke-width:0.71px;"/>
        <path id="LINE150" serif:id="LINE" d="M-208.804,100.875L-210.253,100.566" style="fill:none;stroke:black;stroke-width:0.71px;"/>
        <path id="LINE151" serif:id="LINE" d="M-210.253,100.566L-211.606,99.964" style="fill:none;stroke:black;stroke-width:0.71px;"/>
        <path id="LINE152" serif:id="LINE" d="M-211.606,99.964L-212.805,99.093" style="fill:none;stroke:black;stroke-width:0.71px;"/>
        <path id="LINE153" serif:id="LINE" d="M-212.805,99.093L-213.796,97.992" style="fill:none;stroke:black;stroke-width:0.71px;"/>
        <path id="LINE154" serif:id="LINE" d="M-213.796,97.992L-214.537,96.709" style="fill:none;stroke:black;stroke-width:0.71px;"/>
        <path id="LINE155" serif:id="LINE" d="M-214.537,96.709L-214.995,95.3" style="fill:none;stroke:black;stroke-width:0.71px;"/>
        <path id="LINE156" serif:id="LINE" d="M-214.995,95.3L-215.15,93.827" style="fill:none;stroke:black;stroke-width:0.71px;"/>
        <path id="LINE157" serif:id="LINE" d="M-215.15,93.827L-214.995,92.353" style="fill:none;stroke:black;stroke-width:0.71px;"/>
        <path id="LINE158" serif:id="LINE" d="M-214.995,92.353L-214.537,90.944" style="fill:none;stroke:black;stroke-width:0.71px;"/>
        <path id="LINE159" serif:id="LINE" d="M-214.537,90.944L-213.796,89.661" style="fill:none;stroke:black;stroke-width:0.71px;"/>
        <path id="LINE160" serif:id="LINE" d="M-213.796,89.661L-212.805,88.56" style="fill:none;stroke:black;stroke-width:0.71px;"/>
        <path id="LINE161" serif:id="LINE" d="M-212.805,88.56L-211.606,87.689" style="fill:none;stroke:black;stroke-width:0.71px;"/>
        <path id="LINE162" serif:id="LINE" d="M-211.606,87.689L-210.253,87.087" style="fill:none;stroke:black;stroke-width:0.71px;"/>
        <path id="LINE163" serif:id="LINE" d="M-210.253,87.087L-208.804,86.779" style="fill:none;stroke:black;stroke-width:0.71px;"/>
        <path id="LINE164" serif:id="LINE" d="M-208.804,86.779L-207.322,86.779" style="fill:none;stroke:black;stroke-width:0.71px;"/>
        <path id="LINE165" serif:id="LINE" d="M-207.322,86.779L-205.873,87.087" style="fill:none;stroke:black;stroke-width:0.71px;"/>
        <path id="LINE166" serif:id="LINE" d="M-205.873,87.087L-204.52,87.689" style="fill:none;stroke:black;stroke-width:0.71px;"/>
        <path id="LINE167" serif:id="LINE" d="M-204.52,87.689L-203.321,88.56" style="fill:none;stroke:black;stroke-width:0.71px;"/>
        <path id="LINE168" serif:id="LINE" d="M-203.321,88.56L-202.33,89.661" style="fill:none;stroke:black;stroke-width:0.71px;"/>
        <path id="LINE169" serif:id="LINE" d="M-202.33,89.661L-201.589,90.944" style="fill:none;stroke:black;stroke-width:0.71px;"/>
        <path id="LINE170" serif:id="LINE" d="M-201.589,90.944L-201.131,92.353" style="fill:none;stroke:black;stroke-width:0.71px;"/>
        <path id="LINE171" serif:id="LINE" d="M-201.131,92.353L-200.976,93.827" style="fill:none;stroke:black;stroke-width:0.71px;"/>
        <path id="LINE172" serif:id="LINE" d="M-200.976,93.827L-201.131,95.3" style="fill:none;stroke:black;stroke-width:0.71px;"/>
        <path id="LINE173" serif:id="LINE" d="M-201.131,95.3L-201.589,96.709" style="fill:none;stroke:black;stroke-width:0.71px;"/>
        <path id="LINE174" serif:id="LINE" d="M-201.589,96.709L-202.33,97.992" style="fill:none;stroke:black;stroke-width:0.71px;"/>
        <path id="LINE175" serif:id="LINE" d="M-202.33,97.992L-203.321,99.093" style="fill:none;stroke:black;stroke-width:0.71px;"/>
        <path id="LINE176" serif:id="LINE" d="M-203.321,99.093L-204.52,99.964" style="fill:none;stroke:black;stroke-width:0.71px;"/>
        <path id="LINE177" serif:id="LINE" d="M-204.52,99.964L-205.873,100.566" style="fill:none;stroke:black;stroke-width:0.71px;"/>
        <path id="LINE178" serif:id="LINE" d="M-205.873,100.566L-207.322,100.875" style="fill:none;stroke:black;stroke-width:0.71px;"/>
        <path id="LINE179" serif:id="LINE" d="M-207.322,100.875L-208.804,100.875" style="fill:none;stroke:black;stroke-width:0.71px;"/>
        <path id="LINE180" serif:id="LINE" d="M207.322,100.875L205.873,100.566" style="fill:none;stroke:black;stroke-width:0.71px;"/>
        <path id="LINE181" serif:id="LINE" d="M205.873,100.566L204.52,99.964" style="fill:none;stroke:black;stroke-width:0.71px;"/>
        <path id="LINE182" serif:id="LINE" d="M204.52,99.964L203.321,99.093" style="fill:none;stroke:black;stroke-width:0.71px;"/>
        <path id="LINE183" serif:id="LINE" d="M203.321,99.093L202.33,97.992" style="fill:none;stroke:black;stroke-width:0.71px;"/>
        <path id="LINE184" serif:id="LINE" d="M202.33,97.992L201.589,96.709" style="fill:none;stroke:black;stroke-width:0.71px;"/>
        <path id="LINE185" serif:id="LINE" d="M201.589,96.709L201.131,95.3" style="fill:none;stroke:black;stroke-width:0.71px;"/>
        <path id="LINE186" serif:id="LINE" d="M201.131,95.3L200.976,93.827" style="fill:none;stroke:black;stroke-width:0.71px;"/>
        <path id="LINE187" serif:id="LINE" d="M200.976,93.827L201.131,92.353" style="fill:none;stroke:black;stroke-width:0.71px;"/>
        <path id="LINE188" serif:id="LINE" d="M201.131,92.353L201.589,90.944" style="fill:none;stroke:black;stroke-width:0.71px;"/>
        <path id="LINE189" serif:id="LINE" d="M201.589,90.944L202.33,89.661" style="fill:none;stroke:black;stroke-width:0.71px;"/>
        <path id="LINE190" serif:id="LINE" d="M202.33,89.661L203.321,88.56" style="fill:none;stroke:black;stroke-width:0.71px;"/>
        <path id="LINE191" serif:id="LINE" d="M203.321,88.56L204.52,87.689" style="fill:none;stroke:black;stroke-width:0.71px;"/>
        <path id="LINE192" serif:id="LINE" d="M204.52,87.689L205.873,87.087" style="fill:none;stroke:black;stroke-width:0.71px;"/>
        <path id="LINE193" serif:id="LINE" d="M205.873,87.087L207.322,86.779" style="fill:none;stroke:black;stroke-width:0.71px;"/>
        <path id="LINE194" serif:id="LINE" d="M207.322,86.779L208.804,86.779" style="fill:none;stroke:black;stroke-width:0.71px;"/>
        <path id="LINE195" serif:id="LINE" d="M208.804,86.779L210.253,87.087" style="fill:none;stroke:black;stroke-width:0.71px;"/>
        <path id="LINE196" serif:id="LINE" d="M210.253,87.087L211.606,87.689" style="fill:none;stroke:black;stroke-width:0.71px;"/>
        <path id="LINE197" serif:id="LINE" d="M211.606,87.689L212.805,88.56" style="fill:none;stroke:black;stroke-width:0.71px;"/>
        <path id="LINE198" serif:id="LINE" d="M212.805,88.56L213.796,89.661" style="fill:none;stroke:black;stroke-width:0.71px;"/>
        <path id="LINE199" serif:id="LINE" d="M213.796,89.661L214.537,90.944" style="fill:none;stroke:black;stroke-width:0.71px;"/>
        <path id="LINE200" serif:id="LINE" d="M214.537,90.944L214.995,92.353" style="fill:none;stroke:black;stroke-width:0.71px;"/>
        <path id="LINE201" serif:id="LINE" d="M214.995,92.353L215.15,93.827" style="fill:none;stroke:black;stroke-width:0.71px;"/>
        <path id="LINE202" serif:id="LINE" d="M215.15,93.827L214.995,95.3" style="fill:none;stroke:black;stroke-width:0.71px;"/>
        <path id="LINE203" serif:id="LINE" d="M214.995,95.3L214.537,96.709" style="fill:none;stroke:black;stroke-width:0.71px;"/>
        <path id="LINE204" serif:id="LINE" d="M214.537,96.709L213.796,97.992" style="fill:none;stroke:black;stroke-width:0.71px;"/>
        <path id="LINE205" serif:id="LINE" d="M213.796,97.992L212.805,99.093" style="fill:none;stroke:black;stroke-width:0.71px;"/>
        <path id="LINE206" serif:id="LINE" d="M212.805,99.093L211.606,99.964" style="fill:none;stroke:black;stroke-width:0.71px;"/>
        <path id="LINE207" serif:id="LINE" d="M211.606,99.964L210.253,100.566" style="fill:none;stroke:black;stroke-width:0.71px;"/>
        <path id="LINE208" serif:id="LINE" d="M210.253,100.566L208.804,100.875" style="fill:none;stroke:black;stroke-width:0.71px;"/>
        <path id="LINE209" serif:id="LINE" d="M208.804,100.875L207.322,100.875" style="fill:none;stroke:black;stroke-width:0.71px;"/>
        <path id="LINE210" serif:id="LINE" d="M273.086,100.875L271.637,100.566" style="fill:none;stroke:black;stroke-width:0.71px;"/>
        <path id="LINE211" serif:id="LINE" d="M271.637,100.566L270.283,99.964" style="fill:none;stroke:black;stroke-width:0.71px;"/>
        <path id="LINE212" serif:id="LINE" d="M270.283,99.964L269.085,99.093" style="fill:none;stroke:black;stroke-width:0.71px;"/>
        <path id="LINE213" serif:id="LINE" d="M269.085,99.093L268.094,97.992" style="fill:none;stroke:black;stroke-width:0.71px;"/>
        <path id="LINE214" serif:id="LINE" d="M268.094,97.992L267.353,96.709" style="fill:none;stroke:black;stroke-width:0.71px;"/>
        <path id="LINE215" serif:id="LINE" d="M267.353,96.709L266.895,95.3" style="fill:none;stroke:black;stroke-width:0.71px;"/>
        <path id="LINE216" serif:id="LINE" d="M266.895,95.3L266.74,93.827" style="fill:none;stroke:black;stroke-width:0.71px;"/>
        <path id="LINE217" serif:id="LINE" d="M266.74,93.827L266.895,92.353" style="fill:none;stroke:black;stroke-width:0.71px;"/>
        <path id="LINE218" serif:id="LINE" d="M266.895,92.353L267.353,90.944" style="fill:none;stroke:black;stroke-width:0.71px;"/>
        <path id="LINE219" serif:id="LINE" d="M267.353,90.944L268.094,89.661" style="fill:none;stroke:black;stroke-width:0.71px;"/>
        <path id="LINE220" serif:id="LINE" d="M268.094,89.661L269.085,88.56" style="fill:none;stroke:black;stroke-width:0.71px;"/>
        <path id="LINE221" serif:id="LINE" d="M269.085,88.56L270.283,87.689" style="fill:none;stroke:black;stroke-width:0.71px;"/>
        <path id="LINE222" serif:id="LINE" d="M270.283,87.689L271.637,87.087" style="fill:none;stroke:black;stroke-width:0.71px;"/>
        <path id="LINE223" serif:id="LINE" d="M271.637,87.087L273.086,86.779" style="fill:none;stroke:black;stroke-width:0.71px;"/>
        <path id="LINE224" serif:id="LINE" d="M273.086,86.779L274.567,86.779" style="fill:none;stroke:black;stroke-width:0.71px;"/>
        <path id="LINE225" serif:id="LINE" d="M274.567,86.779L276.017,87.087" style="fill:none;stroke:black;stroke-width:0.71px;"/>
        <path id="LINE226" serif:id="LINE" d="M276.017,87.087L277.37,87.689" style="fill:none;stroke:black;stroke-width:0.71px;"/>
        <path id="LINE227" serif:id="LINE" d="M277.37,87.689L278.569,88.56" style="fill:none;stroke:black;stroke-width:0.71px;"/>
        <path id="LINE228" serif:id="LINE" d="M278.569,88.56L279.56,89.661" style="fill:none;stroke:black;stroke-width:0.71px;"/>
        <path id="LINE229" serif:id="LINE" d="M279.56,89.661L280.301,90.944" style="fill:none;stroke:black;stroke-width:0.71px;"/>
        <path id="LINE230" serif:id="LINE" d="M280.301,90.944L280.759,92.353" style="fill:none;stroke:black;stroke-width:0.71px;"/>
        <path id="LINE231" serif:id="LINE" d="M280.759,92.353L280.913,93.827" style="fill:none;stroke:black;stroke-width:0.71px;"/>
        <path id="LINE232" serif:id="LINE" d="M280.913,93.827L280.759,95.3" style="fill:none;stroke:black;stroke-width:0.71px;"/>
        <path id="LINE233" serif:id="LINE" d="M280.759,95.3L280.301,96.709" style="fill:none;stroke:black;stroke-width:0.71px;"/>
        <path id="LINE234" serif:id="LINE" d="M280.301,96.709L279.56,97.992" style="fill:none;stroke:black;stroke-width:0.71px;"/>
        <path id="LINE235" serif:id="LINE" d="M279.56,97.992L278.569,99.093" style="fill:none;stroke:black;stroke-width:0.71px;"/>
        <path id="LINE236" serif:id="LINE" d="M278.569,99.093L277.37,99.964" style="fill:none;stroke:black;stroke-width:0.71px;"/>
        <path id="LINE237" serif:id="LINE" d="M277.37,99.964L276.017,100.566" style="fill:none;stroke:black;stroke-width:0.71px;"/>
        <path id="LINE238" serif:id="LINE" d="M276.017,100.566L274.567,100.875" style="fill:none;stroke:black;stroke-width:0.71px;"/>
        <path id="LINE239" serif:id="LINE" d="M274.567,100.875L273.086,100.875" style="fill:none;stroke:black;stroke-width:0.71px;"/>
    </g>
</svg>
